%TF.GenerationSoftware,KiCad,Pcbnew,8.0.8*%
%TF.CreationDate,2025-02-16T20:36:26+13:00*%
%TF.ProjectId,hackpad,6861636b-7061-4642-9e6b-696361645f70,rev?*%
%TF.SameCoordinates,Original*%
%TF.FileFunction,Legend,Top*%
%TF.FilePolarity,Positive*%
%FSLAX46Y46*%
G04 Gerber Fmt 4.6, Leading zero omitted, Abs format (unit mm)*
G04 Created by KiCad (PCBNEW 8.0.8) date 2025-02-16 20:36:26*
%MOMM*%
%LPD*%
G01*
G04 APERTURE LIST*
%ADD10C,0.200000*%
%ADD11C,0.100000*%
%ADD12C,0.300000*%
%ADD13C,0.101600*%
%ADD14C,0.150000*%
%ADD15C,0.127000*%
%ADD16C,0.504000*%
%ADD17C,0.120000*%
G04 APERTURE END LIST*
D10*
X100012500Y-78581250D02*
X195262500Y-78581250D01*
X195262500Y-140493750D01*
X100012500Y-140493750D01*
X100012500Y-78581250D01*
D11*
X98323903Y-50006250D02*
X121443750Y-50006250D01*
X121443750Y-73818750D01*
X98323903Y-73818750D01*
X98323903Y-50006250D01*
X142875000Y-50006250D02*
X166687500Y-50006250D01*
X166687500Y-64293750D01*
X142875000Y-64293750D01*
X142875000Y-50006250D01*
X178802396Y-58403669D02*
X179469062Y-59403669D01*
X179469062Y-58403669D02*
X178802396Y-59403669D01*
X179850015Y-59403669D02*
X179850015Y-58403669D01*
X180278586Y-59117954D02*
X180754776Y-59117954D01*
X180183348Y-59403669D02*
X180516681Y-58403669D01*
X180516681Y-58403669D02*
X180850014Y-59403669D01*
X181373824Y-58403669D02*
X181564300Y-58403669D01*
X181564300Y-58403669D02*
X181659538Y-58451288D01*
X181659538Y-58451288D02*
X181754776Y-58546526D01*
X181754776Y-58546526D02*
X181802395Y-58737002D01*
X181802395Y-58737002D02*
X181802395Y-59070335D01*
X181802395Y-59070335D02*
X181754776Y-59260811D01*
X181754776Y-59260811D02*
X181659538Y-59356050D01*
X181659538Y-59356050D02*
X181564300Y-59403669D01*
X181564300Y-59403669D02*
X181373824Y-59403669D01*
X181373824Y-59403669D02*
X181278586Y-59356050D01*
X181278586Y-59356050D02*
X181183348Y-59260811D01*
X181183348Y-59260811D02*
X181135729Y-59070335D01*
X181135729Y-59070335D02*
X181135729Y-58737002D01*
X181135729Y-58737002D02*
X181183348Y-58546526D01*
X181183348Y-58546526D02*
X181278586Y-58451288D01*
X181278586Y-58451288D02*
X181373824Y-58403669D01*
X182992872Y-59403669D02*
X182992872Y-58403669D01*
X182992872Y-58879859D02*
X183564300Y-58879859D01*
X183564300Y-59403669D02*
X183564300Y-58403669D01*
X184040491Y-58879859D02*
X184373824Y-58879859D01*
X184516681Y-59403669D02*
X184040491Y-59403669D01*
X184040491Y-59403669D02*
X184040491Y-58403669D01*
X184040491Y-58403669D02*
X184516681Y-58403669D01*
X185516681Y-59403669D02*
X185183348Y-58927478D01*
X184945253Y-59403669D02*
X184945253Y-58403669D01*
X184945253Y-58403669D02*
X185326205Y-58403669D01*
X185326205Y-58403669D02*
X185421443Y-58451288D01*
X185421443Y-58451288D02*
X185469062Y-58498907D01*
X185469062Y-58498907D02*
X185516681Y-58594145D01*
X185516681Y-58594145D02*
X185516681Y-58737002D01*
X185516681Y-58737002D02*
X185469062Y-58832240D01*
X185469062Y-58832240D02*
X185421443Y-58879859D01*
X185421443Y-58879859D02*
X185326205Y-58927478D01*
X185326205Y-58927478D02*
X184945253Y-58927478D01*
X185945253Y-58879859D02*
X186278586Y-58879859D01*
X186421443Y-59403669D02*
X185945253Y-59403669D01*
X185945253Y-59403669D02*
X185945253Y-58403669D01*
X185945253Y-58403669D02*
X186421443Y-58403669D01*
X186850015Y-59308430D02*
X186897634Y-59356050D01*
X186897634Y-59356050D02*
X186850015Y-59403669D01*
X186850015Y-59403669D02*
X186802396Y-59356050D01*
X186802396Y-59356050D02*
X186850015Y-59308430D01*
X186850015Y-59308430D02*
X186850015Y-59403669D01*
X186850015Y-59022716D02*
X186802396Y-58451288D01*
X186802396Y-58451288D02*
X186850015Y-58403669D01*
X186850015Y-58403669D02*
X186897634Y-58451288D01*
X186897634Y-58451288D02*
X186850015Y-59022716D01*
X186850015Y-59022716D02*
X186850015Y-58403669D01*
X147219423Y-66473051D02*
X147219423Y-65473051D01*
X148457518Y-66473051D02*
X148457518Y-65806384D01*
X148457518Y-65996860D02*
X148505137Y-65901622D01*
X148505137Y-65901622D02*
X148552756Y-65854003D01*
X148552756Y-65854003D02*
X148647994Y-65806384D01*
X148647994Y-65806384D02*
X148743232Y-65806384D01*
X149457518Y-66425432D02*
X149362280Y-66473051D01*
X149362280Y-66473051D02*
X149171804Y-66473051D01*
X149171804Y-66473051D02*
X149076566Y-66425432D01*
X149076566Y-66425432D02*
X149028947Y-66330193D01*
X149028947Y-66330193D02*
X149028947Y-65949241D01*
X149028947Y-65949241D02*
X149076566Y-65854003D01*
X149076566Y-65854003D02*
X149171804Y-65806384D01*
X149171804Y-65806384D02*
X149362280Y-65806384D01*
X149362280Y-65806384D02*
X149457518Y-65854003D01*
X149457518Y-65854003D02*
X149505137Y-65949241D01*
X149505137Y-65949241D02*
X149505137Y-66044479D01*
X149505137Y-66044479D02*
X149028947Y-66139717D01*
X150362280Y-66473051D02*
X150362280Y-65949241D01*
X150362280Y-65949241D02*
X150314661Y-65854003D01*
X150314661Y-65854003D02*
X150219423Y-65806384D01*
X150219423Y-65806384D02*
X150028947Y-65806384D01*
X150028947Y-65806384D02*
X149933709Y-65854003D01*
X150362280Y-66425432D02*
X150267042Y-66473051D01*
X150267042Y-66473051D02*
X150028947Y-66473051D01*
X150028947Y-66473051D02*
X149933709Y-66425432D01*
X149933709Y-66425432D02*
X149886090Y-66330193D01*
X149886090Y-66330193D02*
X149886090Y-66234955D01*
X149886090Y-66234955D02*
X149933709Y-66139717D01*
X149933709Y-66139717D02*
X150028947Y-66092098D01*
X150028947Y-66092098D02*
X150267042Y-66092098D01*
X150267042Y-66092098D02*
X150362280Y-66044479D01*
X150981328Y-66473051D02*
X150886090Y-66425432D01*
X150886090Y-66425432D02*
X150838471Y-66330193D01*
X150838471Y-66330193D02*
X150838471Y-65473051D01*
X151505138Y-66473051D02*
X151409900Y-66425432D01*
X151409900Y-66425432D02*
X151362281Y-66330193D01*
X151362281Y-66330193D02*
X151362281Y-65473051D01*
X151790853Y-65806384D02*
X152028948Y-66473051D01*
X152267043Y-65806384D02*
X152028948Y-66473051D01*
X152028948Y-66473051D02*
X151933710Y-66711146D01*
X151933710Y-66711146D02*
X151886091Y-66758765D01*
X151886091Y-66758765D02*
X151790853Y-66806384D01*
X153409901Y-66473051D02*
X153409901Y-65473051D01*
X153838472Y-66473051D02*
X153838472Y-65949241D01*
X153838472Y-65949241D02*
X153790853Y-65854003D01*
X153790853Y-65854003D02*
X153695615Y-65806384D01*
X153695615Y-65806384D02*
X153552758Y-65806384D01*
X153552758Y-65806384D02*
X153457520Y-65854003D01*
X153457520Y-65854003D02*
X153409901Y-65901622D01*
X154457520Y-66473051D02*
X154362282Y-66425432D01*
X154362282Y-66425432D02*
X154314663Y-66377812D01*
X154314663Y-66377812D02*
X154267044Y-66282574D01*
X154267044Y-66282574D02*
X154267044Y-65996860D01*
X154267044Y-65996860D02*
X154314663Y-65901622D01*
X154314663Y-65901622D02*
X154362282Y-65854003D01*
X154362282Y-65854003D02*
X154457520Y-65806384D01*
X154457520Y-65806384D02*
X154600377Y-65806384D01*
X154600377Y-65806384D02*
X154695615Y-65854003D01*
X154695615Y-65854003D02*
X154743234Y-65901622D01*
X154743234Y-65901622D02*
X154790853Y-65996860D01*
X154790853Y-65996860D02*
X154790853Y-66282574D01*
X154790853Y-66282574D02*
X154743234Y-66377812D01*
X154743234Y-66377812D02*
X154695615Y-66425432D01*
X154695615Y-66425432D02*
X154600377Y-66473051D01*
X154600377Y-66473051D02*
X154457520Y-66473051D01*
X155219425Y-65806384D02*
X155219425Y-66806384D01*
X155219425Y-65854003D02*
X155314663Y-65806384D01*
X155314663Y-65806384D02*
X155505139Y-65806384D01*
X155505139Y-65806384D02*
X155600377Y-65854003D01*
X155600377Y-65854003D02*
X155647996Y-65901622D01*
X155647996Y-65901622D02*
X155695615Y-65996860D01*
X155695615Y-65996860D02*
X155695615Y-66282574D01*
X155695615Y-66282574D02*
X155647996Y-66377812D01*
X155647996Y-66377812D02*
X155600377Y-66425432D01*
X155600377Y-66425432D02*
X155505139Y-66473051D01*
X155505139Y-66473051D02*
X155314663Y-66473051D01*
X155314663Y-66473051D02*
X155219425Y-66425432D01*
X156505139Y-66425432D02*
X156409901Y-66473051D01*
X156409901Y-66473051D02*
X156219425Y-66473051D01*
X156219425Y-66473051D02*
X156124187Y-66425432D01*
X156124187Y-66425432D02*
X156076568Y-66330193D01*
X156076568Y-66330193D02*
X156076568Y-65949241D01*
X156076568Y-65949241D02*
X156124187Y-65854003D01*
X156124187Y-65854003D02*
X156219425Y-65806384D01*
X156219425Y-65806384D02*
X156409901Y-65806384D01*
X156409901Y-65806384D02*
X156505139Y-65854003D01*
X156505139Y-65854003D02*
X156552758Y-65949241D01*
X156552758Y-65949241D02*
X156552758Y-66044479D01*
X156552758Y-66044479D02*
X156076568Y-66139717D01*
X157743235Y-66473051D02*
X157743235Y-65473051D01*
X159409901Y-66473051D02*
X159409901Y-65473051D01*
X159409901Y-66425432D02*
X159314663Y-66473051D01*
X159314663Y-66473051D02*
X159124187Y-66473051D01*
X159124187Y-66473051D02*
X159028949Y-66425432D01*
X159028949Y-66425432D02*
X158981330Y-66377812D01*
X158981330Y-66377812D02*
X158933711Y-66282574D01*
X158933711Y-66282574D02*
X158933711Y-65996860D01*
X158933711Y-65996860D02*
X158981330Y-65901622D01*
X158981330Y-65901622D02*
X159028949Y-65854003D01*
X159028949Y-65854003D02*
X159124187Y-65806384D01*
X159124187Y-65806384D02*
X159314663Y-65806384D01*
X159314663Y-65806384D02*
X159409901Y-65854003D01*
X160028949Y-66473051D02*
X159933711Y-66425432D01*
X159933711Y-66425432D02*
X159886092Y-66377812D01*
X159886092Y-66377812D02*
X159838473Y-66282574D01*
X159838473Y-66282574D02*
X159838473Y-65996860D01*
X159838473Y-65996860D02*
X159886092Y-65901622D01*
X159886092Y-65901622D02*
X159933711Y-65854003D01*
X159933711Y-65854003D02*
X160028949Y-65806384D01*
X160028949Y-65806384D02*
X160171806Y-65806384D01*
X160171806Y-65806384D02*
X160267044Y-65854003D01*
X160267044Y-65854003D02*
X160314663Y-65901622D01*
X160314663Y-65901622D02*
X160362282Y-65996860D01*
X160362282Y-65996860D02*
X160362282Y-66282574D01*
X160362282Y-66282574D02*
X160314663Y-66377812D01*
X160314663Y-66377812D02*
X160267044Y-66425432D01*
X160267044Y-66425432D02*
X160171806Y-66473051D01*
X160171806Y-66473051D02*
X160028949Y-66473051D01*
X160790854Y-65806384D02*
X160790854Y-66473051D01*
X160790854Y-65901622D02*
X160838473Y-65854003D01*
X160838473Y-65854003D02*
X160933711Y-65806384D01*
X160933711Y-65806384D02*
X161076568Y-65806384D01*
X161076568Y-65806384D02*
X161171806Y-65854003D01*
X161171806Y-65854003D02*
X161219425Y-65949241D01*
X161219425Y-65949241D02*
X161219425Y-66473051D01*
X161743235Y-65473051D02*
X161647997Y-65663527D01*
X162028949Y-65806384D02*
X162409901Y-65806384D01*
X162171806Y-65473051D02*
X162171806Y-66330193D01*
X162171806Y-66330193D02*
X162219425Y-66425432D01*
X162219425Y-66425432D02*
X162314663Y-66473051D01*
X162314663Y-66473051D02*
X162409901Y-66473051D01*
X147695613Y-68082995D02*
X147695613Y-67082995D01*
X148124184Y-68082995D02*
X148124184Y-67559185D01*
X148124184Y-67559185D02*
X148076565Y-67463947D01*
X148076565Y-67463947D02*
X147981327Y-67416328D01*
X147981327Y-67416328D02*
X147838470Y-67416328D01*
X147838470Y-67416328D02*
X147743232Y-67463947D01*
X147743232Y-67463947D02*
X147695613Y-67511566D01*
X149028946Y-68082995D02*
X149028946Y-67559185D01*
X149028946Y-67559185D02*
X148981327Y-67463947D01*
X148981327Y-67463947D02*
X148886089Y-67416328D01*
X148886089Y-67416328D02*
X148695613Y-67416328D01*
X148695613Y-67416328D02*
X148600375Y-67463947D01*
X149028946Y-68035376D02*
X148933708Y-68082995D01*
X148933708Y-68082995D02*
X148695613Y-68082995D01*
X148695613Y-68082995D02*
X148600375Y-68035376D01*
X148600375Y-68035376D02*
X148552756Y-67940137D01*
X148552756Y-67940137D02*
X148552756Y-67844899D01*
X148552756Y-67844899D02*
X148600375Y-67749661D01*
X148600375Y-67749661D02*
X148695613Y-67702042D01*
X148695613Y-67702042D02*
X148933708Y-67702042D01*
X148933708Y-67702042D02*
X149028946Y-67654423D01*
X149409899Y-67416328D02*
X149647994Y-68082995D01*
X149647994Y-68082995D02*
X149886089Y-67416328D01*
X150647994Y-68035376D02*
X150552756Y-68082995D01*
X150552756Y-68082995D02*
X150362280Y-68082995D01*
X150362280Y-68082995D02*
X150267042Y-68035376D01*
X150267042Y-68035376D02*
X150219423Y-67940137D01*
X150219423Y-67940137D02*
X150219423Y-67559185D01*
X150219423Y-67559185D02*
X150267042Y-67463947D01*
X150267042Y-67463947D02*
X150362280Y-67416328D01*
X150362280Y-67416328D02*
X150552756Y-67416328D01*
X150552756Y-67416328D02*
X150647994Y-67463947D01*
X150647994Y-67463947D02*
X150695613Y-67559185D01*
X150695613Y-67559185D02*
X150695613Y-67654423D01*
X150695613Y-67654423D02*
X150219423Y-67749661D01*
X151743233Y-67416328D02*
X152124185Y-67416328D01*
X151886090Y-67082995D02*
X151886090Y-67940137D01*
X151886090Y-67940137D02*
X151933709Y-68035376D01*
X151933709Y-68035376D02*
X152028947Y-68082995D01*
X152028947Y-68082995D02*
X152124185Y-68082995D01*
X152600376Y-68082995D02*
X152505138Y-68035376D01*
X152505138Y-68035376D02*
X152457519Y-67987756D01*
X152457519Y-67987756D02*
X152409900Y-67892518D01*
X152409900Y-67892518D02*
X152409900Y-67606804D01*
X152409900Y-67606804D02*
X152457519Y-67511566D01*
X152457519Y-67511566D02*
X152505138Y-67463947D01*
X152505138Y-67463947D02*
X152600376Y-67416328D01*
X152600376Y-67416328D02*
X152743233Y-67416328D01*
X152743233Y-67416328D02*
X152838471Y-67463947D01*
X152838471Y-67463947D02*
X152886090Y-67511566D01*
X152886090Y-67511566D02*
X152933709Y-67606804D01*
X152933709Y-67606804D02*
X152933709Y-67892518D01*
X152933709Y-67892518D02*
X152886090Y-67987756D01*
X152886090Y-67987756D02*
X152838471Y-68035376D01*
X152838471Y-68035376D02*
X152743233Y-68082995D01*
X152743233Y-68082995D02*
X152600376Y-68082995D01*
X154076567Y-68035376D02*
X154171805Y-68082995D01*
X154171805Y-68082995D02*
X154362281Y-68082995D01*
X154362281Y-68082995D02*
X154457519Y-68035376D01*
X154457519Y-68035376D02*
X154505138Y-67940137D01*
X154505138Y-67940137D02*
X154505138Y-67892518D01*
X154505138Y-67892518D02*
X154457519Y-67797280D01*
X154457519Y-67797280D02*
X154362281Y-67749661D01*
X154362281Y-67749661D02*
X154219424Y-67749661D01*
X154219424Y-67749661D02*
X154124186Y-67702042D01*
X154124186Y-67702042D02*
X154076567Y-67606804D01*
X154076567Y-67606804D02*
X154076567Y-67559185D01*
X154076567Y-67559185D02*
X154124186Y-67463947D01*
X154124186Y-67463947D02*
X154219424Y-67416328D01*
X154219424Y-67416328D02*
X154362281Y-67416328D01*
X154362281Y-67416328D02*
X154457519Y-67463947D01*
X155076567Y-68082995D02*
X154981329Y-68035376D01*
X154981329Y-68035376D02*
X154933710Y-67987756D01*
X154933710Y-67987756D02*
X154886091Y-67892518D01*
X154886091Y-67892518D02*
X154886091Y-67606804D01*
X154886091Y-67606804D02*
X154933710Y-67511566D01*
X154933710Y-67511566D02*
X154981329Y-67463947D01*
X154981329Y-67463947D02*
X155076567Y-67416328D01*
X155076567Y-67416328D02*
X155219424Y-67416328D01*
X155219424Y-67416328D02*
X155314662Y-67463947D01*
X155314662Y-67463947D02*
X155362281Y-67511566D01*
X155362281Y-67511566D02*
X155409900Y-67606804D01*
X155409900Y-67606804D02*
X155409900Y-67892518D01*
X155409900Y-67892518D02*
X155362281Y-67987756D01*
X155362281Y-67987756D02*
X155314662Y-68035376D01*
X155314662Y-68035376D02*
X155219424Y-68082995D01*
X155219424Y-68082995D02*
X155076567Y-68082995D01*
X155981329Y-68082995D02*
X155886091Y-68035376D01*
X155886091Y-68035376D02*
X155838472Y-67940137D01*
X155838472Y-67940137D02*
X155838472Y-67082995D01*
X156790853Y-68082995D02*
X156790853Y-67082995D01*
X156790853Y-68035376D02*
X156695615Y-68082995D01*
X156695615Y-68082995D02*
X156505139Y-68082995D01*
X156505139Y-68082995D02*
X156409901Y-68035376D01*
X156409901Y-68035376D02*
X156362282Y-67987756D01*
X156362282Y-67987756D02*
X156314663Y-67892518D01*
X156314663Y-67892518D02*
X156314663Y-67606804D01*
X156314663Y-67606804D02*
X156362282Y-67511566D01*
X156362282Y-67511566D02*
X156409901Y-67463947D01*
X156409901Y-67463947D02*
X156505139Y-67416328D01*
X156505139Y-67416328D02*
X156695615Y-67416328D01*
X156695615Y-67416328D02*
X156790853Y-67463947D01*
X157647996Y-68035376D02*
X157552758Y-68082995D01*
X157552758Y-68082995D02*
X157362282Y-68082995D01*
X157362282Y-68082995D02*
X157267044Y-68035376D01*
X157267044Y-68035376D02*
X157219425Y-67940137D01*
X157219425Y-67940137D02*
X157219425Y-67559185D01*
X157219425Y-67559185D02*
X157267044Y-67463947D01*
X157267044Y-67463947D02*
X157362282Y-67416328D01*
X157362282Y-67416328D02*
X157552758Y-67416328D01*
X157552758Y-67416328D02*
X157647996Y-67463947D01*
X157647996Y-67463947D02*
X157695615Y-67559185D01*
X157695615Y-67559185D02*
X157695615Y-67654423D01*
X157695615Y-67654423D02*
X157219425Y-67749661D01*
X158124187Y-68082995D02*
X158124187Y-67416328D01*
X158124187Y-67606804D02*
X158171806Y-67511566D01*
X158171806Y-67511566D02*
X158219425Y-67463947D01*
X158219425Y-67463947D02*
X158314663Y-67416328D01*
X158314663Y-67416328D02*
X158409901Y-67416328D01*
X159362283Y-67416328D02*
X159743235Y-67416328D01*
X159505140Y-67082995D02*
X159505140Y-67940137D01*
X159505140Y-67940137D02*
X159552759Y-68035376D01*
X159552759Y-68035376D02*
X159647997Y-68082995D01*
X159647997Y-68082995D02*
X159743235Y-68082995D01*
X160076569Y-68082995D02*
X160076569Y-67082995D01*
X160505140Y-68082995D02*
X160505140Y-67559185D01*
X160505140Y-67559185D02*
X160457521Y-67463947D01*
X160457521Y-67463947D02*
X160362283Y-67416328D01*
X160362283Y-67416328D02*
X160219426Y-67416328D01*
X160219426Y-67416328D02*
X160124188Y-67463947D01*
X160124188Y-67463947D02*
X160076569Y-67511566D01*
X160981331Y-68082995D02*
X160981331Y-67416328D01*
X160981331Y-67082995D02*
X160933712Y-67130614D01*
X160933712Y-67130614D02*
X160981331Y-67178233D01*
X160981331Y-67178233D02*
X161028950Y-67130614D01*
X161028950Y-67130614D02*
X160981331Y-67082995D01*
X160981331Y-67082995D02*
X160981331Y-67178233D01*
X161409902Y-68035376D02*
X161505140Y-68082995D01*
X161505140Y-68082995D02*
X161695616Y-68082995D01*
X161695616Y-68082995D02*
X161790854Y-68035376D01*
X161790854Y-68035376D02*
X161838473Y-67940137D01*
X161838473Y-67940137D02*
X161838473Y-67892518D01*
X161838473Y-67892518D02*
X161790854Y-67797280D01*
X161790854Y-67797280D02*
X161695616Y-67749661D01*
X161695616Y-67749661D02*
X161552759Y-67749661D01*
X161552759Y-67749661D02*
X161457521Y-67702042D01*
X161457521Y-67702042D02*
X161409902Y-67606804D01*
X161409902Y-67606804D02*
X161409902Y-67559185D01*
X161409902Y-67559185D02*
X161457521Y-67463947D01*
X161457521Y-67463947D02*
X161552759Y-67416328D01*
X161552759Y-67416328D02*
X161695616Y-67416328D01*
X161695616Y-67416328D02*
X161790854Y-67463947D01*
X145568117Y-48585722D02*
X145901450Y-48585722D01*
X146044307Y-49109532D02*
X145568117Y-49109532D01*
X145568117Y-49109532D02*
X145568117Y-48109532D01*
X145568117Y-48109532D02*
X146044307Y-48109532D01*
X146377641Y-49109532D02*
X146901450Y-48442865D01*
X146377641Y-48442865D02*
X146901450Y-49109532D01*
X147139546Y-48442865D02*
X147520498Y-48442865D01*
X147282403Y-48109532D02*
X147282403Y-48966674D01*
X147282403Y-48966674D02*
X147330022Y-49061913D01*
X147330022Y-49061913D02*
X147425260Y-49109532D01*
X147425260Y-49109532D02*
X147520498Y-49109532D01*
X147853832Y-49109532D02*
X147853832Y-48442865D01*
X147853832Y-48633341D02*
X147901451Y-48538103D01*
X147901451Y-48538103D02*
X147949070Y-48490484D01*
X147949070Y-48490484D02*
X148044308Y-48442865D01*
X148044308Y-48442865D02*
X148139546Y-48442865D01*
X148901451Y-49109532D02*
X148901451Y-48585722D01*
X148901451Y-48585722D02*
X148853832Y-48490484D01*
X148853832Y-48490484D02*
X148758594Y-48442865D01*
X148758594Y-48442865D02*
X148568118Y-48442865D01*
X148568118Y-48442865D02*
X148472880Y-48490484D01*
X148901451Y-49061913D02*
X148806213Y-49109532D01*
X148806213Y-49109532D02*
X148568118Y-49109532D01*
X148568118Y-49109532D02*
X148472880Y-49061913D01*
X148472880Y-49061913D02*
X148425261Y-48966674D01*
X148425261Y-48966674D02*
X148425261Y-48871436D01*
X148425261Y-48871436D02*
X148472880Y-48776198D01*
X148472880Y-48776198D02*
X148568118Y-48728579D01*
X148568118Y-48728579D02*
X148806213Y-48728579D01*
X148806213Y-48728579D02*
X148901451Y-48680960D01*
X150663356Y-48157151D02*
X150568118Y-48109532D01*
X150568118Y-48109532D02*
X150425261Y-48109532D01*
X150425261Y-48109532D02*
X150282404Y-48157151D01*
X150282404Y-48157151D02*
X150187166Y-48252389D01*
X150187166Y-48252389D02*
X150139547Y-48347627D01*
X150139547Y-48347627D02*
X150091928Y-48538103D01*
X150091928Y-48538103D02*
X150091928Y-48680960D01*
X150091928Y-48680960D02*
X150139547Y-48871436D01*
X150139547Y-48871436D02*
X150187166Y-48966674D01*
X150187166Y-48966674D02*
X150282404Y-49061913D01*
X150282404Y-49061913D02*
X150425261Y-49109532D01*
X150425261Y-49109532D02*
X150520499Y-49109532D01*
X150520499Y-49109532D02*
X150663356Y-49061913D01*
X150663356Y-49061913D02*
X150710975Y-49014293D01*
X150710975Y-49014293D02*
X150710975Y-48680960D01*
X150710975Y-48680960D02*
X150520499Y-48680960D01*
X151139547Y-49109532D02*
X151139547Y-48109532D01*
X151139547Y-48109532D02*
X151520499Y-48109532D01*
X151520499Y-48109532D02*
X151615737Y-48157151D01*
X151615737Y-48157151D02*
X151663356Y-48204770D01*
X151663356Y-48204770D02*
X151710975Y-48300008D01*
X151710975Y-48300008D02*
X151710975Y-48442865D01*
X151710975Y-48442865D02*
X151663356Y-48538103D01*
X151663356Y-48538103D02*
X151615737Y-48585722D01*
X151615737Y-48585722D02*
X151520499Y-48633341D01*
X151520499Y-48633341D02*
X151139547Y-48633341D01*
X152139547Y-49109532D02*
X152139547Y-48109532D01*
X152806213Y-48109532D02*
X152996689Y-48109532D01*
X152996689Y-48109532D02*
X153091927Y-48157151D01*
X153091927Y-48157151D02*
X153187165Y-48252389D01*
X153187165Y-48252389D02*
X153234784Y-48442865D01*
X153234784Y-48442865D02*
X153234784Y-48776198D01*
X153234784Y-48776198D02*
X153187165Y-48966674D01*
X153187165Y-48966674D02*
X153091927Y-49061913D01*
X153091927Y-49061913D02*
X152996689Y-49109532D01*
X152996689Y-49109532D02*
X152806213Y-49109532D01*
X152806213Y-49109532D02*
X152710975Y-49061913D01*
X152710975Y-49061913D02*
X152615737Y-48966674D01*
X152615737Y-48966674D02*
X152568118Y-48776198D01*
X152568118Y-48776198D02*
X152568118Y-48442865D01*
X152568118Y-48442865D02*
X152615737Y-48252389D01*
X152615737Y-48252389D02*
X152710975Y-48157151D01*
X152710975Y-48157151D02*
X152806213Y-48109532D01*
X154425261Y-49109532D02*
X154425261Y-48109532D01*
X154425261Y-48490484D02*
X154520499Y-48442865D01*
X154520499Y-48442865D02*
X154710975Y-48442865D01*
X154710975Y-48442865D02*
X154806213Y-48490484D01*
X154806213Y-48490484D02*
X154853832Y-48538103D01*
X154853832Y-48538103D02*
X154901451Y-48633341D01*
X154901451Y-48633341D02*
X154901451Y-48919055D01*
X154901451Y-48919055D02*
X154853832Y-49014293D01*
X154853832Y-49014293D02*
X154806213Y-49061913D01*
X154806213Y-49061913D02*
X154710975Y-49109532D01*
X154710975Y-49109532D02*
X154520499Y-49109532D01*
X154520499Y-49109532D02*
X154425261Y-49061913D01*
X155758594Y-49061913D02*
X155663356Y-49109532D01*
X155663356Y-49109532D02*
X155472880Y-49109532D01*
X155472880Y-49109532D02*
X155377642Y-49061913D01*
X155377642Y-49061913D02*
X155330023Y-49014293D01*
X155330023Y-49014293D02*
X155282404Y-48919055D01*
X155282404Y-48919055D02*
X155282404Y-48633341D01*
X155282404Y-48633341D02*
X155330023Y-48538103D01*
X155330023Y-48538103D02*
X155377642Y-48490484D01*
X155377642Y-48490484D02*
X155472880Y-48442865D01*
X155472880Y-48442865D02*
X155663356Y-48442865D01*
X155663356Y-48442865D02*
X155758594Y-48490484D01*
X156949071Y-49109532D02*
X156949071Y-48109532D01*
X158091928Y-48442865D02*
X158282404Y-49109532D01*
X158282404Y-49109532D02*
X158472880Y-48633341D01*
X158472880Y-48633341D02*
X158663356Y-49109532D01*
X158663356Y-49109532D02*
X158853832Y-48442865D01*
X159663356Y-49109532D02*
X159663356Y-48585722D01*
X159663356Y-48585722D02*
X159615737Y-48490484D01*
X159615737Y-48490484D02*
X159520499Y-48442865D01*
X159520499Y-48442865D02*
X159330023Y-48442865D01*
X159330023Y-48442865D02*
X159234785Y-48490484D01*
X159663356Y-49061913D02*
X159568118Y-49109532D01*
X159568118Y-49109532D02*
X159330023Y-49109532D01*
X159330023Y-49109532D02*
X159234785Y-49061913D01*
X159234785Y-49061913D02*
X159187166Y-48966674D01*
X159187166Y-48966674D02*
X159187166Y-48871436D01*
X159187166Y-48871436D02*
X159234785Y-48776198D01*
X159234785Y-48776198D02*
X159330023Y-48728579D01*
X159330023Y-48728579D02*
X159568118Y-48728579D01*
X159568118Y-48728579D02*
X159663356Y-48680960D01*
X160091928Y-49061913D02*
X160187166Y-49109532D01*
X160187166Y-49109532D02*
X160377642Y-49109532D01*
X160377642Y-49109532D02*
X160472880Y-49061913D01*
X160472880Y-49061913D02*
X160520499Y-48966674D01*
X160520499Y-48966674D02*
X160520499Y-48919055D01*
X160520499Y-48919055D02*
X160472880Y-48823817D01*
X160472880Y-48823817D02*
X160377642Y-48776198D01*
X160377642Y-48776198D02*
X160234785Y-48776198D01*
X160234785Y-48776198D02*
X160139547Y-48728579D01*
X160139547Y-48728579D02*
X160091928Y-48633341D01*
X160091928Y-48633341D02*
X160091928Y-48585722D01*
X160091928Y-48585722D02*
X160139547Y-48490484D01*
X160139547Y-48490484D02*
X160234785Y-48442865D01*
X160234785Y-48442865D02*
X160377642Y-48442865D01*
X160377642Y-48442865D02*
X160472880Y-48490484D01*
X161853833Y-49109532D02*
X161758595Y-49061913D01*
X161758595Y-49061913D02*
X161710976Y-48966674D01*
X161710976Y-48966674D02*
X161710976Y-48109532D01*
X162663357Y-49109532D02*
X162663357Y-48585722D01*
X162663357Y-48585722D02*
X162615738Y-48490484D01*
X162615738Y-48490484D02*
X162520500Y-48442865D01*
X162520500Y-48442865D02*
X162330024Y-48442865D01*
X162330024Y-48442865D02*
X162234786Y-48490484D01*
X162663357Y-49061913D02*
X162568119Y-49109532D01*
X162568119Y-49109532D02*
X162330024Y-49109532D01*
X162330024Y-49109532D02*
X162234786Y-49061913D01*
X162234786Y-49061913D02*
X162187167Y-48966674D01*
X162187167Y-48966674D02*
X162187167Y-48871436D01*
X162187167Y-48871436D02*
X162234786Y-48776198D01*
X162234786Y-48776198D02*
X162330024Y-48728579D01*
X162330024Y-48728579D02*
X162568119Y-48728579D01*
X162568119Y-48728579D02*
X162663357Y-48680960D01*
X163044310Y-48442865D02*
X163568119Y-48442865D01*
X163568119Y-48442865D02*
X163044310Y-49109532D01*
X163044310Y-49109532D02*
X163568119Y-49109532D01*
X163853834Y-48442865D02*
X164091929Y-49109532D01*
X164330024Y-48442865D02*
X164091929Y-49109532D01*
X164091929Y-49109532D02*
X163996691Y-49347627D01*
X163996691Y-49347627D02*
X163949072Y-49395246D01*
X163949072Y-49395246D02*
X163853834Y-49442865D01*
X143154536Y-76858318D02*
X143154536Y-75858318D01*
X143154536Y-75858318D02*
X143535488Y-75858318D01*
X143535488Y-75858318D02*
X143630726Y-75905937D01*
X143630726Y-75905937D02*
X143678345Y-75953556D01*
X143678345Y-75953556D02*
X143725964Y-76048794D01*
X143725964Y-76048794D02*
X143725964Y-76191651D01*
X143725964Y-76191651D02*
X143678345Y-76286889D01*
X143678345Y-76286889D02*
X143630726Y-76334508D01*
X143630726Y-76334508D02*
X143535488Y-76382127D01*
X143535488Y-76382127D02*
X143154536Y-76382127D01*
X144583107Y-76191651D02*
X144583107Y-76858318D01*
X144154536Y-76191651D02*
X144154536Y-76715460D01*
X144154536Y-76715460D02*
X144202155Y-76810699D01*
X144202155Y-76810699D02*
X144297393Y-76858318D01*
X144297393Y-76858318D02*
X144440250Y-76858318D01*
X144440250Y-76858318D02*
X144535488Y-76810699D01*
X144535488Y-76810699D02*
X144583107Y-76763079D01*
X145011679Y-76810699D02*
X145106917Y-76858318D01*
X145106917Y-76858318D02*
X145297393Y-76858318D01*
X145297393Y-76858318D02*
X145392631Y-76810699D01*
X145392631Y-76810699D02*
X145440250Y-76715460D01*
X145440250Y-76715460D02*
X145440250Y-76667841D01*
X145440250Y-76667841D02*
X145392631Y-76572603D01*
X145392631Y-76572603D02*
X145297393Y-76524984D01*
X145297393Y-76524984D02*
X145154536Y-76524984D01*
X145154536Y-76524984D02*
X145059298Y-76477365D01*
X145059298Y-76477365D02*
X145011679Y-76382127D01*
X145011679Y-76382127D02*
X145011679Y-76334508D01*
X145011679Y-76334508D02*
X145059298Y-76239270D01*
X145059298Y-76239270D02*
X145154536Y-76191651D01*
X145154536Y-76191651D02*
X145297393Y-76191651D01*
X145297393Y-76191651D02*
X145392631Y-76239270D01*
X145868822Y-76858318D02*
X145868822Y-75858318D01*
X146297393Y-76858318D02*
X146297393Y-76334508D01*
X146297393Y-76334508D02*
X146249774Y-76239270D01*
X146249774Y-76239270D02*
X146154536Y-76191651D01*
X146154536Y-76191651D02*
X146011679Y-76191651D01*
X146011679Y-76191651D02*
X145916441Y-76239270D01*
X145916441Y-76239270D02*
X145868822Y-76286889D01*
X146678346Y-76191651D02*
X146916441Y-76858318D01*
X147154536Y-76191651D02*
X146916441Y-76858318D01*
X146916441Y-76858318D02*
X146821203Y-77096413D01*
X146821203Y-77096413D02*
X146773584Y-77144032D01*
X146773584Y-77144032D02*
X146678346Y-77191651D01*
X148297394Y-76858318D02*
X148297394Y-75858318D01*
X148868822Y-76858318D02*
X148440251Y-76286889D01*
X148868822Y-75858318D02*
X148297394Y-76429746D01*
X149678346Y-76810699D02*
X149583108Y-76858318D01*
X149583108Y-76858318D02*
X149392632Y-76858318D01*
X149392632Y-76858318D02*
X149297394Y-76810699D01*
X149297394Y-76810699D02*
X149249775Y-76715460D01*
X149249775Y-76715460D02*
X149249775Y-76334508D01*
X149249775Y-76334508D02*
X149297394Y-76239270D01*
X149297394Y-76239270D02*
X149392632Y-76191651D01*
X149392632Y-76191651D02*
X149583108Y-76191651D01*
X149583108Y-76191651D02*
X149678346Y-76239270D01*
X149678346Y-76239270D02*
X149725965Y-76334508D01*
X149725965Y-76334508D02*
X149725965Y-76429746D01*
X149725965Y-76429746D02*
X149249775Y-76524984D01*
X150059299Y-76191651D02*
X150297394Y-76858318D01*
X150535489Y-76191651D02*
X150297394Y-76858318D01*
X150297394Y-76858318D02*
X150202156Y-77096413D01*
X150202156Y-77096413D02*
X150154537Y-77144032D01*
X150154537Y-77144032D02*
X150059299Y-77191651D01*
X150868823Y-76810699D02*
X150964061Y-76858318D01*
X150964061Y-76858318D02*
X151154537Y-76858318D01*
X151154537Y-76858318D02*
X151249775Y-76810699D01*
X151249775Y-76810699D02*
X151297394Y-76715460D01*
X151297394Y-76715460D02*
X151297394Y-76667841D01*
X151297394Y-76667841D02*
X151249775Y-76572603D01*
X151249775Y-76572603D02*
X151154537Y-76524984D01*
X151154537Y-76524984D02*
X151011680Y-76524984D01*
X151011680Y-76524984D02*
X150916442Y-76477365D01*
X150916442Y-76477365D02*
X150868823Y-76382127D01*
X150868823Y-76382127D02*
X150868823Y-76334508D01*
X150868823Y-76334508D02*
X150916442Y-76239270D01*
X150916442Y-76239270D02*
X151011680Y-76191651D01*
X151011680Y-76191651D02*
X151154537Y-76191651D01*
X151154537Y-76191651D02*
X151249775Y-76239270D01*
X100887812Y-48884518D02*
X100554479Y-48408327D01*
X100316384Y-48884518D02*
X100316384Y-47884518D01*
X100316384Y-47884518D02*
X100697336Y-47884518D01*
X100697336Y-47884518D02*
X100792574Y-47932137D01*
X100792574Y-47932137D02*
X100840193Y-47979756D01*
X100840193Y-47979756D02*
X100887812Y-48074994D01*
X100887812Y-48074994D02*
X100887812Y-48217851D01*
X100887812Y-48217851D02*
X100840193Y-48313089D01*
X100840193Y-48313089D02*
X100792574Y-48360708D01*
X100792574Y-48360708D02*
X100697336Y-48408327D01*
X100697336Y-48408327D02*
X100316384Y-48408327D01*
X101744955Y-48884518D02*
X101744955Y-48360708D01*
X101744955Y-48360708D02*
X101697336Y-48265470D01*
X101697336Y-48265470D02*
X101602098Y-48217851D01*
X101602098Y-48217851D02*
X101411622Y-48217851D01*
X101411622Y-48217851D02*
X101316384Y-48265470D01*
X101744955Y-48836899D02*
X101649717Y-48884518D01*
X101649717Y-48884518D02*
X101411622Y-48884518D01*
X101411622Y-48884518D02*
X101316384Y-48836899D01*
X101316384Y-48836899D02*
X101268765Y-48741660D01*
X101268765Y-48741660D02*
X101268765Y-48646422D01*
X101268765Y-48646422D02*
X101316384Y-48551184D01*
X101316384Y-48551184D02*
X101411622Y-48503565D01*
X101411622Y-48503565D02*
X101649717Y-48503565D01*
X101649717Y-48503565D02*
X101744955Y-48455946D01*
X102221146Y-48217851D02*
X102221146Y-48884518D01*
X102221146Y-48313089D02*
X102268765Y-48265470D01*
X102268765Y-48265470D02*
X102364003Y-48217851D01*
X102364003Y-48217851D02*
X102506860Y-48217851D01*
X102506860Y-48217851D02*
X102602098Y-48265470D01*
X102602098Y-48265470D02*
X102649717Y-48360708D01*
X102649717Y-48360708D02*
X102649717Y-48884518D01*
X103554479Y-48884518D02*
X103554479Y-47884518D01*
X103554479Y-48836899D02*
X103459241Y-48884518D01*
X103459241Y-48884518D02*
X103268765Y-48884518D01*
X103268765Y-48884518D02*
X103173527Y-48836899D01*
X103173527Y-48836899D02*
X103125908Y-48789279D01*
X103125908Y-48789279D02*
X103078289Y-48694041D01*
X103078289Y-48694041D02*
X103078289Y-48408327D01*
X103078289Y-48408327D02*
X103125908Y-48313089D01*
X103125908Y-48313089D02*
X103173527Y-48265470D01*
X103173527Y-48265470D02*
X103268765Y-48217851D01*
X103268765Y-48217851D02*
X103459241Y-48217851D01*
X103459241Y-48217851D02*
X103554479Y-48265470D01*
X104173527Y-48884518D02*
X104078289Y-48836899D01*
X104078289Y-48836899D02*
X104030670Y-48789279D01*
X104030670Y-48789279D02*
X103983051Y-48694041D01*
X103983051Y-48694041D02*
X103983051Y-48408327D01*
X103983051Y-48408327D02*
X104030670Y-48313089D01*
X104030670Y-48313089D02*
X104078289Y-48265470D01*
X104078289Y-48265470D02*
X104173527Y-48217851D01*
X104173527Y-48217851D02*
X104316384Y-48217851D01*
X104316384Y-48217851D02*
X104411622Y-48265470D01*
X104411622Y-48265470D02*
X104459241Y-48313089D01*
X104459241Y-48313089D02*
X104506860Y-48408327D01*
X104506860Y-48408327D02*
X104506860Y-48694041D01*
X104506860Y-48694041D02*
X104459241Y-48789279D01*
X104459241Y-48789279D02*
X104411622Y-48836899D01*
X104411622Y-48836899D02*
X104316384Y-48884518D01*
X104316384Y-48884518D02*
X104173527Y-48884518D01*
X104935432Y-48884518D02*
X104935432Y-48217851D01*
X104935432Y-48313089D02*
X104983051Y-48265470D01*
X104983051Y-48265470D02*
X105078289Y-48217851D01*
X105078289Y-48217851D02*
X105221146Y-48217851D01*
X105221146Y-48217851D02*
X105316384Y-48265470D01*
X105316384Y-48265470D02*
X105364003Y-48360708D01*
X105364003Y-48360708D02*
X105364003Y-48884518D01*
X105364003Y-48360708D02*
X105411622Y-48265470D01*
X105411622Y-48265470D02*
X105506860Y-48217851D01*
X105506860Y-48217851D02*
X105649717Y-48217851D01*
X105649717Y-48217851D02*
X105744956Y-48265470D01*
X105744956Y-48265470D02*
X105792575Y-48360708D01*
X105792575Y-48360708D02*
X105792575Y-48884518D01*
X107030670Y-48884518D02*
X107030670Y-47884518D01*
X107125908Y-48503565D02*
X107411622Y-48884518D01*
X107411622Y-48217851D02*
X107030670Y-48598803D01*
X108221146Y-48836899D02*
X108125908Y-48884518D01*
X108125908Y-48884518D02*
X107935432Y-48884518D01*
X107935432Y-48884518D02*
X107840194Y-48836899D01*
X107840194Y-48836899D02*
X107792575Y-48741660D01*
X107792575Y-48741660D02*
X107792575Y-48360708D01*
X107792575Y-48360708D02*
X107840194Y-48265470D01*
X107840194Y-48265470D02*
X107935432Y-48217851D01*
X107935432Y-48217851D02*
X108125908Y-48217851D01*
X108125908Y-48217851D02*
X108221146Y-48265470D01*
X108221146Y-48265470D02*
X108268765Y-48360708D01*
X108268765Y-48360708D02*
X108268765Y-48455946D01*
X108268765Y-48455946D02*
X107792575Y-48551184D01*
X108602099Y-48217851D02*
X108840194Y-48884518D01*
X109078289Y-48217851D02*
X108840194Y-48884518D01*
X108840194Y-48884518D02*
X108744956Y-49122613D01*
X108744956Y-49122613D02*
X108697337Y-49170232D01*
X108697337Y-49170232D02*
X108602099Y-49217851D01*
X110649718Y-48836899D02*
X110554480Y-48884518D01*
X110554480Y-48884518D02*
X110364004Y-48884518D01*
X110364004Y-48884518D02*
X110268766Y-48836899D01*
X110268766Y-48836899D02*
X110221147Y-48789279D01*
X110221147Y-48789279D02*
X110173528Y-48694041D01*
X110173528Y-48694041D02*
X110173528Y-48408327D01*
X110173528Y-48408327D02*
X110221147Y-48313089D01*
X110221147Y-48313089D02*
X110268766Y-48265470D01*
X110268766Y-48265470D02*
X110364004Y-48217851D01*
X110364004Y-48217851D02*
X110554480Y-48217851D01*
X110554480Y-48217851D02*
X110649718Y-48265470D01*
X111506861Y-48884518D02*
X111506861Y-48360708D01*
X111506861Y-48360708D02*
X111459242Y-48265470D01*
X111459242Y-48265470D02*
X111364004Y-48217851D01*
X111364004Y-48217851D02*
X111173528Y-48217851D01*
X111173528Y-48217851D02*
X111078290Y-48265470D01*
X111506861Y-48836899D02*
X111411623Y-48884518D01*
X111411623Y-48884518D02*
X111173528Y-48884518D01*
X111173528Y-48884518D02*
X111078290Y-48836899D01*
X111078290Y-48836899D02*
X111030671Y-48741660D01*
X111030671Y-48741660D02*
X111030671Y-48646422D01*
X111030671Y-48646422D02*
X111078290Y-48551184D01*
X111078290Y-48551184D02*
X111173528Y-48503565D01*
X111173528Y-48503565D02*
X111411623Y-48503565D01*
X111411623Y-48503565D02*
X111506861Y-48455946D01*
X112411623Y-48217851D02*
X112411623Y-48884518D01*
X111983052Y-48217851D02*
X111983052Y-48741660D01*
X111983052Y-48741660D02*
X112030671Y-48836899D01*
X112030671Y-48836899D02*
X112125909Y-48884518D01*
X112125909Y-48884518D02*
X112268766Y-48884518D01*
X112268766Y-48884518D02*
X112364004Y-48836899D01*
X112364004Y-48836899D02*
X112411623Y-48789279D01*
X112840195Y-48836899D02*
X112935433Y-48884518D01*
X112935433Y-48884518D02*
X113125909Y-48884518D01*
X113125909Y-48884518D02*
X113221147Y-48836899D01*
X113221147Y-48836899D02*
X113268766Y-48741660D01*
X113268766Y-48741660D02*
X113268766Y-48694041D01*
X113268766Y-48694041D02*
X113221147Y-48598803D01*
X113221147Y-48598803D02*
X113125909Y-48551184D01*
X113125909Y-48551184D02*
X112983052Y-48551184D01*
X112983052Y-48551184D02*
X112887814Y-48503565D01*
X112887814Y-48503565D02*
X112840195Y-48408327D01*
X112840195Y-48408327D02*
X112840195Y-48360708D01*
X112840195Y-48360708D02*
X112887814Y-48265470D01*
X112887814Y-48265470D02*
X112983052Y-48217851D01*
X112983052Y-48217851D02*
X113125909Y-48217851D01*
X113125909Y-48217851D02*
X113221147Y-48265470D01*
X114078290Y-48836899D02*
X113983052Y-48884518D01*
X113983052Y-48884518D02*
X113792576Y-48884518D01*
X113792576Y-48884518D02*
X113697338Y-48836899D01*
X113697338Y-48836899D02*
X113649719Y-48741660D01*
X113649719Y-48741660D02*
X113649719Y-48360708D01*
X113649719Y-48360708D02*
X113697338Y-48265470D01*
X113697338Y-48265470D02*
X113792576Y-48217851D01*
X113792576Y-48217851D02*
X113983052Y-48217851D01*
X113983052Y-48217851D02*
X114078290Y-48265470D01*
X114078290Y-48265470D02*
X114125909Y-48360708D01*
X114125909Y-48360708D02*
X114125909Y-48455946D01*
X114125909Y-48455946D02*
X113649719Y-48551184D01*
X115316386Y-48884518D02*
X115316386Y-47884518D01*
X116459243Y-48217851D02*
X116649719Y-48884518D01*
X116649719Y-48884518D02*
X116840195Y-48408327D01*
X116840195Y-48408327D02*
X117030671Y-48884518D01*
X117030671Y-48884518D02*
X117221147Y-48217851D01*
X118030671Y-48884518D02*
X118030671Y-48360708D01*
X118030671Y-48360708D02*
X117983052Y-48265470D01*
X117983052Y-48265470D02*
X117887814Y-48217851D01*
X117887814Y-48217851D02*
X117697338Y-48217851D01*
X117697338Y-48217851D02*
X117602100Y-48265470D01*
X118030671Y-48836899D02*
X117935433Y-48884518D01*
X117935433Y-48884518D02*
X117697338Y-48884518D01*
X117697338Y-48884518D02*
X117602100Y-48836899D01*
X117602100Y-48836899D02*
X117554481Y-48741660D01*
X117554481Y-48741660D02*
X117554481Y-48646422D01*
X117554481Y-48646422D02*
X117602100Y-48551184D01*
X117602100Y-48551184D02*
X117697338Y-48503565D01*
X117697338Y-48503565D02*
X117935433Y-48503565D01*
X117935433Y-48503565D02*
X118030671Y-48455946D01*
X118506862Y-48217851D02*
X118506862Y-48884518D01*
X118506862Y-48313089D02*
X118554481Y-48265470D01*
X118554481Y-48265470D02*
X118649719Y-48217851D01*
X118649719Y-48217851D02*
X118792576Y-48217851D01*
X118792576Y-48217851D02*
X118887814Y-48265470D01*
X118887814Y-48265470D02*
X118935433Y-48360708D01*
X118935433Y-48360708D02*
X118935433Y-48884518D01*
X119268767Y-48217851D02*
X119649719Y-48217851D01*
X119411624Y-47884518D02*
X119411624Y-48741660D01*
X119411624Y-48741660D02*
X119459243Y-48836899D01*
X119459243Y-48836899D02*
X119554481Y-48884518D01*
X119554481Y-48884518D02*
X119649719Y-48884518D01*
X120364005Y-48836899D02*
X120268767Y-48884518D01*
X120268767Y-48884518D02*
X120078291Y-48884518D01*
X120078291Y-48884518D02*
X119983053Y-48836899D01*
X119983053Y-48836899D02*
X119935434Y-48741660D01*
X119935434Y-48741660D02*
X119935434Y-48360708D01*
X119935434Y-48360708D02*
X119983053Y-48265470D01*
X119983053Y-48265470D02*
X120078291Y-48217851D01*
X120078291Y-48217851D02*
X120268767Y-48217851D01*
X120268767Y-48217851D02*
X120364005Y-48265470D01*
X120364005Y-48265470D02*
X120411624Y-48360708D01*
X120411624Y-48360708D02*
X120411624Y-48455946D01*
X120411624Y-48455946D02*
X119935434Y-48551184D01*
X121268767Y-48884518D02*
X121268767Y-47884518D01*
X121268767Y-48836899D02*
X121173529Y-48884518D01*
X121173529Y-48884518D02*
X120983053Y-48884518D01*
X120983053Y-48884518D02*
X120887815Y-48836899D01*
X120887815Y-48836899D02*
X120840196Y-48789279D01*
X120840196Y-48789279D02*
X120792577Y-48694041D01*
X120792577Y-48694041D02*
X120792577Y-48408327D01*
X120792577Y-48408327D02*
X120840196Y-48313089D01*
X120840196Y-48313089D02*
X120887815Y-48265470D01*
X120887815Y-48265470D02*
X120983053Y-48217851D01*
X120983053Y-48217851D02*
X121173529Y-48217851D01*
X121173529Y-48217851D02*
X121268767Y-48265470D01*
X122506863Y-48884518D02*
X122506863Y-48217851D01*
X122506863Y-48313089D02*
X122554482Y-48265470D01*
X122554482Y-48265470D02*
X122649720Y-48217851D01*
X122649720Y-48217851D02*
X122792577Y-48217851D01*
X122792577Y-48217851D02*
X122887815Y-48265470D01*
X122887815Y-48265470D02*
X122935434Y-48360708D01*
X122935434Y-48360708D02*
X122935434Y-48884518D01*
X122935434Y-48360708D02*
X122983053Y-48265470D01*
X122983053Y-48265470D02*
X123078291Y-48217851D01*
X123078291Y-48217851D02*
X123221148Y-48217851D01*
X123221148Y-48217851D02*
X123316387Y-48265470D01*
X123316387Y-48265470D02*
X123364006Y-48360708D01*
X123364006Y-48360708D02*
X123364006Y-48884518D01*
X123983053Y-48884518D02*
X123887815Y-48836899D01*
X123887815Y-48836899D02*
X123840196Y-48789279D01*
X123840196Y-48789279D02*
X123792577Y-48694041D01*
X123792577Y-48694041D02*
X123792577Y-48408327D01*
X123792577Y-48408327D02*
X123840196Y-48313089D01*
X123840196Y-48313089D02*
X123887815Y-48265470D01*
X123887815Y-48265470D02*
X123983053Y-48217851D01*
X123983053Y-48217851D02*
X124125910Y-48217851D01*
X124125910Y-48217851D02*
X124221148Y-48265470D01*
X124221148Y-48265470D02*
X124268767Y-48313089D01*
X124268767Y-48313089D02*
X124316386Y-48408327D01*
X124316386Y-48408327D02*
X124316386Y-48694041D01*
X124316386Y-48694041D02*
X124268767Y-48789279D01*
X124268767Y-48789279D02*
X124221148Y-48836899D01*
X124221148Y-48836899D02*
X124125910Y-48884518D01*
X124125910Y-48884518D02*
X123983053Y-48884518D01*
X124744958Y-48884518D02*
X124744958Y-48217851D01*
X124744958Y-48408327D02*
X124792577Y-48313089D01*
X124792577Y-48313089D02*
X124840196Y-48265470D01*
X124840196Y-48265470D02*
X124935434Y-48217851D01*
X124935434Y-48217851D02*
X125030672Y-48217851D01*
X125744958Y-48836899D02*
X125649720Y-48884518D01*
X125649720Y-48884518D02*
X125459244Y-48884518D01*
X125459244Y-48884518D02*
X125364006Y-48836899D01*
X125364006Y-48836899D02*
X125316387Y-48741660D01*
X125316387Y-48741660D02*
X125316387Y-48360708D01*
X125316387Y-48360708D02*
X125364006Y-48265470D01*
X125364006Y-48265470D02*
X125459244Y-48217851D01*
X125459244Y-48217851D02*
X125649720Y-48217851D01*
X125649720Y-48217851D02*
X125744958Y-48265470D01*
X125744958Y-48265470D02*
X125792577Y-48360708D01*
X125792577Y-48360708D02*
X125792577Y-48455946D01*
X125792577Y-48455946D02*
X125316387Y-48551184D01*
D12*
X175758395Y-75077137D02*
X175758395Y-73577137D01*
X175758395Y-74291423D02*
X176615538Y-74291423D01*
X176615538Y-75077137D02*
X176615538Y-73577137D01*
X177901253Y-75005709D02*
X177758396Y-75077137D01*
X177758396Y-75077137D02*
X177472682Y-75077137D01*
X177472682Y-75077137D02*
X177329824Y-75005709D01*
X177329824Y-75005709D02*
X177258396Y-74862851D01*
X177258396Y-74862851D02*
X177258396Y-74291423D01*
X177258396Y-74291423D02*
X177329824Y-74148566D01*
X177329824Y-74148566D02*
X177472682Y-74077137D01*
X177472682Y-74077137D02*
X177758396Y-74077137D01*
X177758396Y-74077137D02*
X177901253Y-74148566D01*
X177901253Y-74148566D02*
X177972682Y-74291423D01*
X177972682Y-74291423D02*
X177972682Y-74434280D01*
X177972682Y-74434280D02*
X177258396Y-74577137D01*
X178472681Y-75077137D02*
X179258396Y-74077137D01*
X178472681Y-74077137D02*
X179258396Y-75077137D01*
X180472682Y-75077137D02*
X180472682Y-74291423D01*
X180472682Y-74291423D02*
X180401253Y-74148566D01*
X180401253Y-74148566D02*
X180258396Y-74077137D01*
X180258396Y-74077137D02*
X179972682Y-74077137D01*
X179972682Y-74077137D02*
X179829824Y-74148566D01*
X180472682Y-75005709D02*
X180329824Y-75077137D01*
X180329824Y-75077137D02*
X179972682Y-75077137D01*
X179972682Y-75077137D02*
X179829824Y-75005709D01*
X179829824Y-75005709D02*
X179758396Y-74862851D01*
X179758396Y-74862851D02*
X179758396Y-74719994D01*
X179758396Y-74719994D02*
X179829824Y-74577137D01*
X179829824Y-74577137D02*
X179972682Y-74505709D01*
X179972682Y-74505709D02*
X180329824Y-74505709D01*
X180329824Y-74505709D02*
X180472682Y-74434280D01*
X181829825Y-75077137D02*
X181829825Y-73577137D01*
X181829825Y-75005709D02*
X181686967Y-75077137D01*
X181686967Y-75077137D02*
X181401253Y-75077137D01*
X181401253Y-75077137D02*
X181258396Y-75005709D01*
X181258396Y-75005709D02*
X181186967Y-74934280D01*
X181186967Y-74934280D02*
X181115539Y-74791423D01*
X181115539Y-74791423D02*
X181115539Y-74362851D01*
X181115539Y-74362851D02*
X181186967Y-74219994D01*
X181186967Y-74219994D02*
X181258396Y-74148566D01*
X181258396Y-74148566D02*
X181401253Y-74077137D01*
X181401253Y-74077137D02*
X181686967Y-74077137D01*
X181686967Y-74077137D02*
X181829825Y-74148566D01*
X183115539Y-75005709D02*
X182972682Y-75077137D01*
X182972682Y-75077137D02*
X182686968Y-75077137D01*
X182686968Y-75077137D02*
X182544110Y-75005709D01*
X182544110Y-75005709D02*
X182472682Y-74862851D01*
X182472682Y-74862851D02*
X182472682Y-74291423D01*
X182472682Y-74291423D02*
X182544110Y-74148566D01*
X182544110Y-74148566D02*
X182686968Y-74077137D01*
X182686968Y-74077137D02*
X182972682Y-74077137D01*
X182972682Y-74077137D02*
X183115539Y-74148566D01*
X183115539Y-74148566D02*
X183186968Y-74291423D01*
X183186968Y-74291423D02*
X183186968Y-74434280D01*
X183186968Y-74434280D02*
X182472682Y-74577137D01*
X184472682Y-75005709D02*
X184329824Y-75077137D01*
X184329824Y-75077137D02*
X184044110Y-75077137D01*
X184044110Y-75077137D02*
X183901253Y-75005709D01*
X183901253Y-75005709D02*
X183829824Y-74934280D01*
X183829824Y-74934280D02*
X183758396Y-74791423D01*
X183758396Y-74791423D02*
X183758396Y-74362851D01*
X183758396Y-74362851D02*
X183829824Y-74219994D01*
X183829824Y-74219994D02*
X183901253Y-74148566D01*
X183901253Y-74148566D02*
X184044110Y-74077137D01*
X184044110Y-74077137D02*
X184329824Y-74077137D01*
X184329824Y-74077137D02*
X184472682Y-74148566D01*
X185115538Y-75077137D02*
X185115538Y-74077137D01*
X185115538Y-73577137D02*
X185044110Y-73648566D01*
X185044110Y-73648566D02*
X185115538Y-73719994D01*
X185115538Y-73719994D02*
X185186967Y-73648566D01*
X185186967Y-73648566D02*
X185115538Y-73577137D01*
X185115538Y-73577137D02*
X185115538Y-73719994D01*
X185829824Y-75077137D02*
X185829824Y-73577137D01*
X185829824Y-73577137D02*
X186401253Y-73577137D01*
X186401253Y-73577137D02*
X186544110Y-73648566D01*
X186544110Y-73648566D02*
X186615539Y-73719994D01*
X186615539Y-73719994D02*
X186686967Y-73862851D01*
X186686967Y-73862851D02*
X186686967Y-74077137D01*
X186686967Y-74077137D02*
X186615539Y-74219994D01*
X186615539Y-74219994D02*
X186544110Y-74291423D01*
X186544110Y-74291423D02*
X186401253Y-74362851D01*
X186401253Y-74362851D02*
X185829824Y-74362851D01*
X187972682Y-75077137D02*
X187972682Y-74291423D01*
X187972682Y-74291423D02*
X187901253Y-74148566D01*
X187901253Y-74148566D02*
X187758396Y-74077137D01*
X187758396Y-74077137D02*
X187472682Y-74077137D01*
X187472682Y-74077137D02*
X187329824Y-74148566D01*
X187972682Y-75005709D02*
X187829824Y-75077137D01*
X187829824Y-75077137D02*
X187472682Y-75077137D01*
X187472682Y-75077137D02*
X187329824Y-75005709D01*
X187329824Y-75005709D02*
X187258396Y-74862851D01*
X187258396Y-74862851D02*
X187258396Y-74719994D01*
X187258396Y-74719994D02*
X187329824Y-74577137D01*
X187329824Y-74577137D02*
X187472682Y-74505709D01*
X187472682Y-74505709D02*
X187829824Y-74505709D01*
X187829824Y-74505709D02*
X187972682Y-74434280D01*
X189329825Y-75077137D02*
X189329825Y-73577137D01*
X189329825Y-75005709D02*
X189186967Y-75077137D01*
X189186967Y-75077137D02*
X188901253Y-75077137D01*
X188901253Y-75077137D02*
X188758396Y-75005709D01*
X188758396Y-75005709D02*
X188686967Y-74934280D01*
X188686967Y-74934280D02*
X188615539Y-74791423D01*
X188615539Y-74791423D02*
X188615539Y-74362851D01*
X188615539Y-74362851D02*
X188686967Y-74219994D01*
X188686967Y-74219994D02*
X188758396Y-74148566D01*
X188758396Y-74148566D02*
X188901253Y-74077137D01*
X188901253Y-74077137D02*
X189186967Y-74077137D01*
X189186967Y-74077137D02*
X189329825Y-74148566D01*
X175544110Y-75992053D02*
X176044110Y-77492053D01*
X176044110Y-77492053D02*
X176544110Y-75992053D01*
X176901252Y-75992053D02*
X177829824Y-75992053D01*
X177829824Y-75992053D02*
X177329824Y-76563482D01*
X177329824Y-76563482D02*
X177544109Y-76563482D01*
X177544109Y-76563482D02*
X177686967Y-76634910D01*
X177686967Y-76634910D02*
X177758395Y-76706339D01*
X177758395Y-76706339D02*
X177829824Y-76849196D01*
X177829824Y-76849196D02*
X177829824Y-77206339D01*
X177829824Y-77206339D02*
X177758395Y-77349196D01*
X177758395Y-77349196D02*
X177686967Y-77420625D01*
X177686967Y-77420625D02*
X177544109Y-77492053D01*
X177544109Y-77492053D02*
X177115538Y-77492053D01*
X177115538Y-77492053D02*
X176972681Y-77420625D01*
X176972681Y-77420625D02*
X176901252Y-77349196D01*
D13*
X192630153Y-56714811D02*
X192630153Y-57362430D01*
X192630153Y-57362430D02*
X192668248Y-57438620D01*
X192668248Y-57438620D02*
X192706343Y-57476716D01*
X192706343Y-57476716D02*
X192782534Y-57514811D01*
X192782534Y-57514811D02*
X192934915Y-57514811D01*
X192934915Y-57514811D02*
X193011105Y-57476716D01*
X193011105Y-57476716D02*
X193049200Y-57438620D01*
X193049200Y-57438620D02*
X193087296Y-57362430D01*
X193087296Y-57362430D02*
X193087296Y-56714811D01*
X193887295Y-57514811D02*
X193430152Y-57514811D01*
X193658724Y-57514811D02*
X193658724Y-56714811D01*
X193658724Y-56714811D02*
X193582533Y-56829096D01*
X193582533Y-56829096D02*
X193506343Y-56905287D01*
X193506343Y-56905287D02*
X193430152Y-56943382D01*
D14*
X164444686Y-71080498D02*
X163968495Y-71413831D01*
X164444686Y-71651926D02*
X163444686Y-71651926D01*
X163444686Y-71651926D02*
X163444686Y-71270974D01*
X163444686Y-71270974D02*
X163492305Y-71175736D01*
X163492305Y-71175736D02*
X163539924Y-71128117D01*
X163539924Y-71128117D02*
X163635162Y-71080498D01*
X163635162Y-71080498D02*
X163778019Y-71080498D01*
X163778019Y-71080498D02*
X163873257Y-71128117D01*
X163873257Y-71128117D02*
X163920876Y-71175736D01*
X163920876Y-71175736D02*
X163968495Y-71270974D01*
X163968495Y-71270974D02*
X163968495Y-71651926D01*
X163539924Y-70699545D02*
X163492305Y-70651926D01*
X163492305Y-70651926D02*
X163444686Y-70556688D01*
X163444686Y-70556688D02*
X163444686Y-70318593D01*
X163444686Y-70318593D02*
X163492305Y-70223355D01*
X163492305Y-70223355D02*
X163539924Y-70175736D01*
X163539924Y-70175736D02*
X163635162Y-70128117D01*
X163635162Y-70128117D02*
X163730400Y-70128117D01*
X163730400Y-70128117D02*
X163873257Y-70175736D01*
X163873257Y-70175736D02*
X164444686Y-70747164D01*
X164444686Y-70747164D02*
X164444686Y-70128117D01*
X179049076Y-71194095D02*
X179049076Y-70194095D01*
X179049076Y-70194095D02*
X179287171Y-70194095D01*
X179287171Y-70194095D02*
X179430028Y-70241714D01*
X179430028Y-70241714D02*
X179525266Y-70336952D01*
X179525266Y-70336952D02*
X179572885Y-70432190D01*
X179572885Y-70432190D02*
X179620504Y-70622666D01*
X179620504Y-70622666D02*
X179620504Y-70765523D01*
X179620504Y-70765523D02*
X179572885Y-70955999D01*
X179572885Y-70955999D02*
X179525266Y-71051237D01*
X179525266Y-71051237D02*
X179430028Y-71146476D01*
X179430028Y-71146476D02*
X179287171Y-71194095D01*
X179287171Y-71194095D02*
X179049076Y-71194095D01*
X180572885Y-71194095D02*
X180001457Y-71194095D01*
X180287171Y-71194095D02*
X180287171Y-70194095D01*
X180287171Y-70194095D02*
X180191933Y-70336952D01*
X180191933Y-70336952D02*
X180096695Y-70432190D01*
X180096695Y-70432190D02*
X180001457Y-70479809D01*
X172919871Y-70208495D02*
X172462728Y-70208495D01*
X172691300Y-70208495D02*
X172691300Y-69408495D01*
X172691300Y-69408495D02*
X172615109Y-69522780D01*
X172615109Y-69522780D02*
X172538919Y-69598971D01*
X172538919Y-69598971D02*
X172462728Y-69637066D01*
X108204167Y-102070700D02*
X108347024Y-102118319D01*
X108347024Y-102118319D02*
X108585119Y-102118319D01*
X108585119Y-102118319D02*
X108680357Y-102070700D01*
X108680357Y-102070700D02*
X108727976Y-102023080D01*
X108727976Y-102023080D02*
X108775595Y-101927842D01*
X108775595Y-101927842D02*
X108775595Y-101832604D01*
X108775595Y-101832604D02*
X108727976Y-101737366D01*
X108727976Y-101737366D02*
X108680357Y-101689747D01*
X108680357Y-101689747D02*
X108585119Y-101642128D01*
X108585119Y-101642128D02*
X108394643Y-101594509D01*
X108394643Y-101594509D02*
X108299405Y-101546890D01*
X108299405Y-101546890D02*
X108251786Y-101499271D01*
X108251786Y-101499271D02*
X108204167Y-101404033D01*
X108204167Y-101404033D02*
X108204167Y-101308795D01*
X108204167Y-101308795D02*
X108251786Y-101213557D01*
X108251786Y-101213557D02*
X108299405Y-101165938D01*
X108299405Y-101165938D02*
X108394643Y-101118319D01*
X108394643Y-101118319D02*
X108632738Y-101118319D01*
X108632738Y-101118319D02*
X108775595Y-101165938D01*
X109108929Y-101118319D02*
X109347024Y-102118319D01*
X109347024Y-102118319D02*
X109537500Y-101404033D01*
X109537500Y-101404033D02*
X109727976Y-102118319D01*
X109727976Y-102118319D02*
X109966072Y-101118319D01*
X110775595Y-101118319D02*
X110585119Y-101118319D01*
X110585119Y-101118319D02*
X110489881Y-101165938D01*
X110489881Y-101165938D02*
X110442262Y-101213557D01*
X110442262Y-101213557D02*
X110347024Y-101356414D01*
X110347024Y-101356414D02*
X110299405Y-101546890D01*
X110299405Y-101546890D02*
X110299405Y-101927842D01*
X110299405Y-101927842D02*
X110347024Y-102023080D01*
X110347024Y-102023080D02*
X110394643Y-102070700D01*
X110394643Y-102070700D02*
X110489881Y-102118319D01*
X110489881Y-102118319D02*
X110680357Y-102118319D01*
X110680357Y-102118319D02*
X110775595Y-102070700D01*
X110775595Y-102070700D02*
X110823214Y-102023080D01*
X110823214Y-102023080D02*
X110870833Y-101927842D01*
X110870833Y-101927842D02*
X110870833Y-101689747D01*
X110870833Y-101689747D02*
X110823214Y-101594509D01*
X110823214Y-101594509D02*
X110775595Y-101546890D01*
X110775595Y-101546890D02*
X110680357Y-101499271D01*
X110680357Y-101499271D02*
X110489881Y-101499271D01*
X110489881Y-101499271D02*
X110394643Y-101546890D01*
X110394643Y-101546890D02*
X110347024Y-101594509D01*
X110347024Y-101594509D02*
X110299405Y-101689747D01*
X170477772Y-70720477D02*
X170001581Y-71053810D01*
X170477772Y-71291905D02*
X169477772Y-71291905D01*
X169477772Y-71291905D02*
X169477772Y-70910953D01*
X169477772Y-70910953D02*
X169525391Y-70815715D01*
X169525391Y-70815715D02*
X169573010Y-70768096D01*
X169573010Y-70768096D02*
X169668248Y-70720477D01*
X169668248Y-70720477D02*
X169811105Y-70720477D01*
X169811105Y-70720477D02*
X169906343Y-70768096D01*
X169906343Y-70768096D02*
X169953962Y-70815715D01*
X169953962Y-70815715D02*
X170001581Y-70910953D01*
X170001581Y-70910953D02*
X170001581Y-71291905D01*
X170477772Y-69768096D02*
X170477772Y-70339524D01*
X170477772Y-70053810D02*
X169477772Y-70053810D01*
X169477772Y-70053810D02*
X169620629Y-70149048D01*
X169620629Y-70149048D02*
X169715867Y-70244286D01*
X169715867Y-70244286D02*
X169763486Y-70339524D01*
X145827976Y-121120700D02*
X145970833Y-121168319D01*
X145970833Y-121168319D02*
X146208928Y-121168319D01*
X146208928Y-121168319D02*
X146304166Y-121120700D01*
X146304166Y-121120700D02*
X146351785Y-121073080D01*
X146351785Y-121073080D02*
X146399404Y-120977842D01*
X146399404Y-120977842D02*
X146399404Y-120882604D01*
X146399404Y-120882604D02*
X146351785Y-120787366D01*
X146351785Y-120787366D02*
X146304166Y-120739747D01*
X146304166Y-120739747D02*
X146208928Y-120692128D01*
X146208928Y-120692128D02*
X146018452Y-120644509D01*
X146018452Y-120644509D02*
X145923214Y-120596890D01*
X145923214Y-120596890D02*
X145875595Y-120549271D01*
X145875595Y-120549271D02*
X145827976Y-120454033D01*
X145827976Y-120454033D02*
X145827976Y-120358795D01*
X145827976Y-120358795D02*
X145875595Y-120263557D01*
X145875595Y-120263557D02*
X145923214Y-120215938D01*
X145923214Y-120215938D02*
X146018452Y-120168319D01*
X146018452Y-120168319D02*
X146256547Y-120168319D01*
X146256547Y-120168319D02*
X146399404Y-120215938D01*
X146732738Y-120168319D02*
X146970833Y-121168319D01*
X146970833Y-121168319D02*
X147161309Y-120454033D01*
X147161309Y-120454033D02*
X147351785Y-121168319D01*
X147351785Y-121168319D02*
X147589881Y-120168319D01*
X148494642Y-121168319D02*
X147923214Y-121168319D01*
X148208928Y-121168319D02*
X148208928Y-120168319D01*
X148208928Y-120168319D02*
X148113690Y-120311176D01*
X148113690Y-120311176D02*
X148018452Y-120406414D01*
X148018452Y-120406414D02*
X147923214Y-120454033D01*
X148827976Y-120168319D02*
X149447023Y-120168319D01*
X149447023Y-120168319D02*
X149113690Y-120549271D01*
X149113690Y-120549271D02*
X149256547Y-120549271D01*
X149256547Y-120549271D02*
X149351785Y-120596890D01*
X149351785Y-120596890D02*
X149399404Y-120644509D01*
X149399404Y-120644509D02*
X149447023Y-120739747D01*
X149447023Y-120739747D02*
X149447023Y-120977842D01*
X149447023Y-120977842D02*
X149399404Y-121073080D01*
X149399404Y-121073080D02*
X149351785Y-121120700D01*
X149351785Y-121120700D02*
X149256547Y-121168319D01*
X149256547Y-121168319D02*
X148970833Y-121168319D01*
X148970833Y-121168319D02*
X148875595Y-121120700D01*
X148875595Y-121120700D02*
X148827976Y-121073080D01*
X164877976Y-121120700D02*
X165020833Y-121168319D01*
X165020833Y-121168319D02*
X165258928Y-121168319D01*
X165258928Y-121168319D02*
X165354166Y-121120700D01*
X165354166Y-121120700D02*
X165401785Y-121073080D01*
X165401785Y-121073080D02*
X165449404Y-120977842D01*
X165449404Y-120977842D02*
X165449404Y-120882604D01*
X165449404Y-120882604D02*
X165401785Y-120787366D01*
X165401785Y-120787366D02*
X165354166Y-120739747D01*
X165354166Y-120739747D02*
X165258928Y-120692128D01*
X165258928Y-120692128D02*
X165068452Y-120644509D01*
X165068452Y-120644509D02*
X164973214Y-120596890D01*
X164973214Y-120596890D02*
X164925595Y-120549271D01*
X164925595Y-120549271D02*
X164877976Y-120454033D01*
X164877976Y-120454033D02*
X164877976Y-120358795D01*
X164877976Y-120358795D02*
X164925595Y-120263557D01*
X164925595Y-120263557D02*
X164973214Y-120215938D01*
X164973214Y-120215938D02*
X165068452Y-120168319D01*
X165068452Y-120168319D02*
X165306547Y-120168319D01*
X165306547Y-120168319D02*
X165449404Y-120215938D01*
X165782738Y-120168319D02*
X166020833Y-121168319D01*
X166020833Y-121168319D02*
X166211309Y-120454033D01*
X166211309Y-120454033D02*
X166401785Y-121168319D01*
X166401785Y-121168319D02*
X166639881Y-120168319D01*
X167544642Y-121168319D02*
X166973214Y-121168319D01*
X167258928Y-121168319D02*
X167258928Y-120168319D01*
X167258928Y-120168319D02*
X167163690Y-120311176D01*
X167163690Y-120311176D02*
X167068452Y-120406414D01*
X167068452Y-120406414D02*
X166973214Y-120454033D01*
X168401785Y-120501652D02*
X168401785Y-121168319D01*
X168163690Y-120120700D02*
X167925595Y-120834985D01*
X167925595Y-120834985D02*
X168544642Y-120834985D01*
X165354167Y-102070700D02*
X165497024Y-102118319D01*
X165497024Y-102118319D02*
X165735119Y-102118319D01*
X165735119Y-102118319D02*
X165830357Y-102070700D01*
X165830357Y-102070700D02*
X165877976Y-102023080D01*
X165877976Y-102023080D02*
X165925595Y-101927842D01*
X165925595Y-101927842D02*
X165925595Y-101832604D01*
X165925595Y-101832604D02*
X165877976Y-101737366D01*
X165877976Y-101737366D02*
X165830357Y-101689747D01*
X165830357Y-101689747D02*
X165735119Y-101642128D01*
X165735119Y-101642128D02*
X165544643Y-101594509D01*
X165544643Y-101594509D02*
X165449405Y-101546890D01*
X165449405Y-101546890D02*
X165401786Y-101499271D01*
X165401786Y-101499271D02*
X165354167Y-101404033D01*
X165354167Y-101404033D02*
X165354167Y-101308795D01*
X165354167Y-101308795D02*
X165401786Y-101213557D01*
X165401786Y-101213557D02*
X165449405Y-101165938D01*
X165449405Y-101165938D02*
X165544643Y-101118319D01*
X165544643Y-101118319D02*
X165782738Y-101118319D01*
X165782738Y-101118319D02*
X165925595Y-101165938D01*
X166258929Y-101118319D02*
X166497024Y-102118319D01*
X166497024Y-102118319D02*
X166687500Y-101404033D01*
X166687500Y-101404033D02*
X166877976Y-102118319D01*
X166877976Y-102118319D02*
X167116072Y-101118319D01*
X167544643Y-102118319D02*
X167735119Y-102118319D01*
X167735119Y-102118319D02*
X167830357Y-102070700D01*
X167830357Y-102070700D02*
X167877976Y-102023080D01*
X167877976Y-102023080D02*
X167973214Y-101880223D01*
X167973214Y-101880223D02*
X168020833Y-101689747D01*
X168020833Y-101689747D02*
X168020833Y-101308795D01*
X168020833Y-101308795D02*
X167973214Y-101213557D01*
X167973214Y-101213557D02*
X167925595Y-101165938D01*
X167925595Y-101165938D02*
X167830357Y-101118319D01*
X167830357Y-101118319D02*
X167639881Y-101118319D01*
X167639881Y-101118319D02*
X167544643Y-101165938D01*
X167544643Y-101165938D02*
X167497024Y-101213557D01*
X167497024Y-101213557D02*
X167449405Y-101308795D01*
X167449405Y-101308795D02*
X167449405Y-101546890D01*
X167449405Y-101546890D02*
X167497024Y-101642128D01*
X167497024Y-101642128D02*
X167544643Y-101689747D01*
X167544643Y-101689747D02*
X167639881Y-101737366D01*
X167639881Y-101737366D02*
X167830357Y-101737366D01*
X167830357Y-101737366D02*
X167925595Y-101689747D01*
X167925595Y-101689747D02*
X167973214Y-101642128D01*
X167973214Y-101642128D02*
X168020833Y-101546890D01*
X179954167Y-83694700D02*
X180097024Y-83742319D01*
X180097024Y-83742319D02*
X180335119Y-83742319D01*
X180335119Y-83742319D02*
X180430357Y-83694700D01*
X180430357Y-83694700D02*
X180477976Y-83647080D01*
X180477976Y-83647080D02*
X180525595Y-83551842D01*
X180525595Y-83551842D02*
X180525595Y-83456604D01*
X180525595Y-83456604D02*
X180477976Y-83361366D01*
X180477976Y-83361366D02*
X180430357Y-83313747D01*
X180430357Y-83313747D02*
X180335119Y-83266128D01*
X180335119Y-83266128D02*
X180144643Y-83218509D01*
X180144643Y-83218509D02*
X180049405Y-83170890D01*
X180049405Y-83170890D02*
X180001786Y-83123271D01*
X180001786Y-83123271D02*
X179954167Y-83028033D01*
X179954167Y-83028033D02*
X179954167Y-82932795D01*
X179954167Y-82932795D02*
X180001786Y-82837557D01*
X180001786Y-82837557D02*
X180049405Y-82789938D01*
X180049405Y-82789938D02*
X180144643Y-82742319D01*
X180144643Y-82742319D02*
X180382738Y-82742319D01*
X180382738Y-82742319D02*
X180525595Y-82789938D01*
X180858929Y-82742319D02*
X181097024Y-83742319D01*
X181097024Y-83742319D02*
X181287500Y-83028033D01*
X181287500Y-83028033D02*
X181477976Y-83742319D01*
X181477976Y-83742319D02*
X181716072Y-82742319D01*
X182573214Y-82742319D02*
X182097024Y-82742319D01*
X182097024Y-82742319D02*
X182049405Y-83218509D01*
X182049405Y-83218509D02*
X182097024Y-83170890D01*
X182097024Y-83170890D02*
X182192262Y-83123271D01*
X182192262Y-83123271D02*
X182430357Y-83123271D01*
X182430357Y-83123271D02*
X182525595Y-83170890D01*
X182525595Y-83170890D02*
X182573214Y-83218509D01*
X182573214Y-83218509D02*
X182620833Y-83313747D01*
X182620833Y-83313747D02*
X182620833Y-83551842D01*
X182620833Y-83551842D02*
X182573214Y-83647080D01*
X182573214Y-83647080D02*
X182525595Y-83694700D01*
X182525595Y-83694700D02*
X182430357Y-83742319D01*
X182430357Y-83742319D02*
X182192262Y-83742319D01*
X182192262Y-83742319D02*
X182097024Y-83694700D01*
X182097024Y-83694700D02*
X182049405Y-83647080D01*
X126777976Y-121120700D02*
X126920833Y-121168319D01*
X126920833Y-121168319D02*
X127158928Y-121168319D01*
X127158928Y-121168319D02*
X127254166Y-121120700D01*
X127254166Y-121120700D02*
X127301785Y-121073080D01*
X127301785Y-121073080D02*
X127349404Y-120977842D01*
X127349404Y-120977842D02*
X127349404Y-120882604D01*
X127349404Y-120882604D02*
X127301785Y-120787366D01*
X127301785Y-120787366D02*
X127254166Y-120739747D01*
X127254166Y-120739747D02*
X127158928Y-120692128D01*
X127158928Y-120692128D02*
X126968452Y-120644509D01*
X126968452Y-120644509D02*
X126873214Y-120596890D01*
X126873214Y-120596890D02*
X126825595Y-120549271D01*
X126825595Y-120549271D02*
X126777976Y-120454033D01*
X126777976Y-120454033D02*
X126777976Y-120358795D01*
X126777976Y-120358795D02*
X126825595Y-120263557D01*
X126825595Y-120263557D02*
X126873214Y-120215938D01*
X126873214Y-120215938D02*
X126968452Y-120168319D01*
X126968452Y-120168319D02*
X127206547Y-120168319D01*
X127206547Y-120168319D02*
X127349404Y-120215938D01*
X127682738Y-120168319D02*
X127920833Y-121168319D01*
X127920833Y-121168319D02*
X128111309Y-120454033D01*
X128111309Y-120454033D02*
X128301785Y-121168319D01*
X128301785Y-121168319D02*
X128539881Y-120168319D01*
X129444642Y-121168319D02*
X128873214Y-121168319D01*
X129158928Y-121168319D02*
X129158928Y-120168319D01*
X129158928Y-120168319D02*
X129063690Y-120311176D01*
X129063690Y-120311176D02*
X128968452Y-120406414D01*
X128968452Y-120406414D02*
X128873214Y-120454033D01*
X129825595Y-120263557D02*
X129873214Y-120215938D01*
X129873214Y-120215938D02*
X129968452Y-120168319D01*
X129968452Y-120168319D02*
X130206547Y-120168319D01*
X130206547Y-120168319D02*
X130301785Y-120215938D01*
X130301785Y-120215938D02*
X130349404Y-120263557D01*
X130349404Y-120263557D02*
X130397023Y-120358795D01*
X130397023Y-120358795D02*
X130397023Y-120454033D01*
X130397023Y-120454033D02*
X130349404Y-120596890D01*
X130349404Y-120596890D02*
X129777976Y-121168319D01*
X129777976Y-121168319D02*
X130397023Y-121168319D01*
X117729166Y-55786069D02*
X117395833Y-55309878D01*
X117157738Y-55786069D02*
X117157738Y-54786069D01*
X117157738Y-54786069D02*
X117538690Y-54786069D01*
X117538690Y-54786069D02*
X117633928Y-54833688D01*
X117633928Y-54833688D02*
X117681547Y-54881307D01*
X117681547Y-54881307D02*
X117729166Y-54976545D01*
X117729166Y-54976545D02*
X117729166Y-55119402D01*
X117729166Y-55119402D02*
X117681547Y-55214640D01*
X117681547Y-55214640D02*
X117633928Y-55262259D01*
X117633928Y-55262259D02*
X117538690Y-55309878D01*
X117538690Y-55309878D02*
X117157738Y-55309878D01*
X118157738Y-55262259D02*
X118491071Y-55262259D01*
X118633928Y-55786069D02*
X118157738Y-55786069D01*
X118157738Y-55786069D02*
X118157738Y-54786069D01*
X118157738Y-54786069D02*
X118633928Y-54786069D01*
X119395833Y-55262259D02*
X119062500Y-55262259D01*
X119062500Y-55786069D02*
X119062500Y-54786069D01*
X119062500Y-54786069D02*
X119538690Y-54786069D01*
X120062500Y-54786069D02*
X120062500Y-55024164D01*
X119824405Y-54928926D02*
X120062500Y-55024164D01*
X120062500Y-55024164D02*
X120300595Y-54928926D01*
X119919643Y-55214640D02*
X120062500Y-55024164D01*
X120062500Y-55024164D02*
X120205357Y-55214640D01*
X120824405Y-54786069D02*
X120824405Y-55024164D01*
X120586310Y-54928926D02*
X120824405Y-55024164D01*
X120824405Y-55024164D02*
X121062500Y-54928926D01*
X120681548Y-55214640D02*
X120824405Y-55024164D01*
X120824405Y-55024164D02*
X120967262Y-55214640D01*
X146304167Y-83031300D02*
X146447024Y-83078919D01*
X146447024Y-83078919D02*
X146685119Y-83078919D01*
X146685119Y-83078919D02*
X146780357Y-83031300D01*
X146780357Y-83031300D02*
X146827976Y-82983680D01*
X146827976Y-82983680D02*
X146875595Y-82888442D01*
X146875595Y-82888442D02*
X146875595Y-82793204D01*
X146875595Y-82793204D02*
X146827976Y-82697966D01*
X146827976Y-82697966D02*
X146780357Y-82650347D01*
X146780357Y-82650347D02*
X146685119Y-82602728D01*
X146685119Y-82602728D02*
X146494643Y-82555109D01*
X146494643Y-82555109D02*
X146399405Y-82507490D01*
X146399405Y-82507490D02*
X146351786Y-82459871D01*
X146351786Y-82459871D02*
X146304167Y-82364633D01*
X146304167Y-82364633D02*
X146304167Y-82269395D01*
X146304167Y-82269395D02*
X146351786Y-82174157D01*
X146351786Y-82174157D02*
X146399405Y-82126538D01*
X146399405Y-82126538D02*
X146494643Y-82078919D01*
X146494643Y-82078919D02*
X146732738Y-82078919D01*
X146732738Y-82078919D02*
X146875595Y-82126538D01*
X147208929Y-82078919D02*
X147447024Y-83078919D01*
X147447024Y-83078919D02*
X147637500Y-82364633D01*
X147637500Y-82364633D02*
X147827976Y-83078919D01*
X147827976Y-83078919D02*
X148066072Y-82078919D01*
X148351786Y-82078919D02*
X148970833Y-82078919D01*
X148970833Y-82078919D02*
X148637500Y-82459871D01*
X148637500Y-82459871D02*
X148780357Y-82459871D01*
X148780357Y-82459871D02*
X148875595Y-82507490D01*
X148875595Y-82507490D02*
X148923214Y-82555109D01*
X148923214Y-82555109D02*
X148970833Y-82650347D01*
X148970833Y-82650347D02*
X148970833Y-82888442D01*
X148970833Y-82888442D02*
X148923214Y-82983680D01*
X148923214Y-82983680D02*
X148875595Y-83031300D01*
X148875595Y-83031300D02*
X148780357Y-83078919D01*
X148780357Y-83078919D02*
X148494643Y-83078919D01*
X148494643Y-83078919D02*
X148399405Y-83031300D01*
X148399405Y-83031300D02*
X148351786Y-82983680D01*
X117729166Y-115317319D02*
X117395833Y-114841128D01*
X117157738Y-115317319D02*
X117157738Y-114317319D01*
X117157738Y-114317319D02*
X117538690Y-114317319D01*
X117538690Y-114317319D02*
X117633928Y-114364938D01*
X117633928Y-114364938D02*
X117681547Y-114412557D01*
X117681547Y-114412557D02*
X117729166Y-114507795D01*
X117729166Y-114507795D02*
X117729166Y-114650652D01*
X117729166Y-114650652D02*
X117681547Y-114745890D01*
X117681547Y-114745890D02*
X117633928Y-114793509D01*
X117633928Y-114793509D02*
X117538690Y-114841128D01*
X117538690Y-114841128D02*
X117157738Y-114841128D01*
X118157738Y-114793509D02*
X118491071Y-114793509D01*
X118633928Y-115317319D02*
X118157738Y-115317319D01*
X118157738Y-115317319D02*
X118157738Y-114317319D01*
X118157738Y-114317319D02*
X118633928Y-114317319D01*
X119395833Y-114793509D02*
X119062500Y-114793509D01*
X119062500Y-115317319D02*
X119062500Y-114317319D01*
X119062500Y-114317319D02*
X119538690Y-114317319D01*
X120062500Y-114317319D02*
X120062500Y-114555414D01*
X119824405Y-114460176D02*
X120062500Y-114555414D01*
X120062500Y-114555414D02*
X120300595Y-114460176D01*
X119919643Y-114745890D02*
X120062500Y-114555414D01*
X120062500Y-114555414D02*
X120205357Y-114745890D01*
X120824405Y-114317319D02*
X120824405Y-114555414D01*
X120586310Y-114460176D02*
X120824405Y-114555414D01*
X120824405Y-114555414D02*
X121062500Y-114460176D01*
X120681548Y-114745890D02*
X120824405Y-114555414D01*
X120824405Y-114555414D02*
X120967262Y-114745890D01*
X107727976Y-121120700D02*
X107870833Y-121168319D01*
X107870833Y-121168319D02*
X108108928Y-121168319D01*
X108108928Y-121168319D02*
X108204166Y-121120700D01*
X108204166Y-121120700D02*
X108251785Y-121073080D01*
X108251785Y-121073080D02*
X108299404Y-120977842D01*
X108299404Y-120977842D02*
X108299404Y-120882604D01*
X108299404Y-120882604D02*
X108251785Y-120787366D01*
X108251785Y-120787366D02*
X108204166Y-120739747D01*
X108204166Y-120739747D02*
X108108928Y-120692128D01*
X108108928Y-120692128D02*
X107918452Y-120644509D01*
X107918452Y-120644509D02*
X107823214Y-120596890D01*
X107823214Y-120596890D02*
X107775595Y-120549271D01*
X107775595Y-120549271D02*
X107727976Y-120454033D01*
X107727976Y-120454033D02*
X107727976Y-120358795D01*
X107727976Y-120358795D02*
X107775595Y-120263557D01*
X107775595Y-120263557D02*
X107823214Y-120215938D01*
X107823214Y-120215938D02*
X107918452Y-120168319D01*
X107918452Y-120168319D02*
X108156547Y-120168319D01*
X108156547Y-120168319D02*
X108299404Y-120215938D01*
X108632738Y-120168319D02*
X108870833Y-121168319D01*
X108870833Y-121168319D02*
X109061309Y-120454033D01*
X109061309Y-120454033D02*
X109251785Y-121168319D01*
X109251785Y-121168319D02*
X109489881Y-120168319D01*
X110394642Y-121168319D02*
X109823214Y-121168319D01*
X110108928Y-121168319D02*
X110108928Y-120168319D01*
X110108928Y-120168319D02*
X110013690Y-120311176D01*
X110013690Y-120311176D02*
X109918452Y-120406414D01*
X109918452Y-120406414D02*
X109823214Y-120454033D01*
X111347023Y-121168319D02*
X110775595Y-121168319D01*
X111061309Y-121168319D02*
X111061309Y-120168319D01*
X111061309Y-120168319D02*
X110966071Y-120311176D01*
X110966071Y-120311176D02*
X110870833Y-120406414D01*
X110870833Y-120406414D02*
X110775595Y-120454033D01*
X174879166Y-134367319D02*
X174545833Y-133891128D01*
X174307738Y-134367319D02*
X174307738Y-133367319D01*
X174307738Y-133367319D02*
X174688690Y-133367319D01*
X174688690Y-133367319D02*
X174783928Y-133414938D01*
X174783928Y-133414938D02*
X174831547Y-133462557D01*
X174831547Y-133462557D02*
X174879166Y-133557795D01*
X174879166Y-133557795D02*
X174879166Y-133700652D01*
X174879166Y-133700652D02*
X174831547Y-133795890D01*
X174831547Y-133795890D02*
X174783928Y-133843509D01*
X174783928Y-133843509D02*
X174688690Y-133891128D01*
X174688690Y-133891128D02*
X174307738Y-133891128D01*
X175307738Y-133843509D02*
X175641071Y-133843509D01*
X175783928Y-134367319D02*
X175307738Y-134367319D01*
X175307738Y-134367319D02*
X175307738Y-133367319D01*
X175307738Y-133367319D02*
X175783928Y-133367319D01*
X176545833Y-133843509D02*
X176212500Y-133843509D01*
X176212500Y-134367319D02*
X176212500Y-133367319D01*
X176212500Y-133367319D02*
X176688690Y-133367319D01*
X177212500Y-133367319D02*
X177212500Y-133605414D01*
X176974405Y-133510176D02*
X177212500Y-133605414D01*
X177212500Y-133605414D02*
X177450595Y-133510176D01*
X177069643Y-133795890D02*
X177212500Y-133605414D01*
X177212500Y-133605414D02*
X177355357Y-133795890D01*
X177974405Y-133367319D02*
X177974405Y-133605414D01*
X177736310Y-133510176D02*
X177974405Y-133605414D01*
X177974405Y-133605414D02*
X178212500Y-133510176D01*
X177831548Y-133795890D02*
X177974405Y-133605414D01*
X177974405Y-133605414D02*
X178117262Y-133795890D01*
X183927976Y-121120700D02*
X184070833Y-121168319D01*
X184070833Y-121168319D02*
X184308928Y-121168319D01*
X184308928Y-121168319D02*
X184404166Y-121120700D01*
X184404166Y-121120700D02*
X184451785Y-121073080D01*
X184451785Y-121073080D02*
X184499404Y-120977842D01*
X184499404Y-120977842D02*
X184499404Y-120882604D01*
X184499404Y-120882604D02*
X184451785Y-120787366D01*
X184451785Y-120787366D02*
X184404166Y-120739747D01*
X184404166Y-120739747D02*
X184308928Y-120692128D01*
X184308928Y-120692128D02*
X184118452Y-120644509D01*
X184118452Y-120644509D02*
X184023214Y-120596890D01*
X184023214Y-120596890D02*
X183975595Y-120549271D01*
X183975595Y-120549271D02*
X183927976Y-120454033D01*
X183927976Y-120454033D02*
X183927976Y-120358795D01*
X183927976Y-120358795D02*
X183975595Y-120263557D01*
X183975595Y-120263557D02*
X184023214Y-120215938D01*
X184023214Y-120215938D02*
X184118452Y-120168319D01*
X184118452Y-120168319D02*
X184356547Y-120168319D01*
X184356547Y-120168319D02*
X184499404Y-120215938D01*
X184832738Y-120168319D02*
X185070833Y-121168319D01*
X185070833Y-121168319D02*
X185261309Y-120454033D01*
X185261309Y-120454033D02*
X185451785Y-121168319D01*
X185451785Y-121168319D02*
X185689881Y-120168319D01*
X186594642Y-121168319D02*
X186023214Y-121168319D01*
X186308928Y-121168319D02*
X186308928Y-120168319D01*
X186308928Y-120168319D02*
X186213690Y-120311176D01*
X186213690Y-120311176D02*
X186118452Y-120406414D01*
X186118452Y-120406414D02*
X186023214Y-120454033D01*
X187499404Y-120168319D02*
X187023214Y-120168319D01*
X187023214Y-120168319D02*
X186975595Y-120644509D01*
X186975595Y-120644509D02*
X187023214Y-120596890D01*
X187023214Y-120596890D02*
X187118452Y-120549271D01*
X187118452Y-120549271D02*
X187356547Y-120549271D01*
X187356547Y-120549271D02*
X187451785Y-120596890D01*
X187451785Y-120596890D02*
X187499404Y-120644509D01*
X187499404Y-120644509D02*
X187547023Y-120739747D01*
X187547023Y-120739747D02*
X187547023Y-120977842D01*
X187547023Y-120977842D02*
X187499404Y-121073080D01*
X187499404Y-121073080D02*
X187451785Y-121120700D01*
X187451785Y-121120700D02*
X187356547Y-121168319D01*
X187356547Y-121168319D02*
X187118452Y-121168319D01*
X187118452Y-121168319D02*
X187023214Y-121120700D01*
X187023214Y-121120700D02*
X186975595Y-121073080D01*
X127254167Y-102070700D02*
X127397024Y-102118319D01*
X127397024Y-102118319D02*
X127635119Y-102118319D01*
X127635119Y-102118319D02*
X127730357Y-102070700D01*
X127730357Y-102070700D02*
X127777976Y-102023080D01*
X127777976Y-102023080D02*
X127825595Y-101927842D01*
X127825595Y-101927842D02*
X127825595Y-101832604D01*
X127825595Y-101832604D02*
X127777976Y-101737366D01*
X127777976Y-101737366D02*
X127730357Y-101689747D01*
X127730357Y-101689747D02*
X127635119Y-101642128D01*
X127635119Y-101642128D02*
X127444643Y-101594509D01*
X127444643Y-101594509D02*
X127349405Y-101546890D01*
X127349405Y-101546890D02*
X127301786Y-101499271D01*
X127301786Y-101499271D02*
X127254167Y-101404033D01*
X127254167Y-101404033D02*
X127254167Y-101308795D01*
X127254167Y-101308795D02*
X127301786Y-101213557D01*
X127301786Y-101213557D02*
X127349405Y-101165938D01*
X127349405Y-101165938D02*
X127444643Y-101118319D01*
X127444643Y-101118319D02*
X127682738Y-101118319D01*
X127682738Y-101118319D02*
X127825595Y-101165938D01*
X128158929Y-101118319D02*
X128397024Y-102118319D01*
X128397024Y-102118319D02*
X128587500Y-101404033D01*
X128587500Y-101404033D02*
X128777976Y-102118319D01*
X128777976Y-102118319D02*
X129016072Y-101118319D01*
X129301786Y-101118319D02*
X129968452Y-101118319D01*
X129968452Y-101118319D02*
X129539881Y-102118319D01*
X183927976Y-102070700D02*
X184070833Y-102118319D01*
X184070833Y-102118319D02*
X184308928Y-102118319D01*
X184308928Y-102118319D02*
X184404166Y-102070700D01*
X184404166Y-102070700D02*
X184451785Y-102023080D01*
X184451785Y-102023080D02*
X184499404Y-101927842D01*
X184499404Y-101927842D02*
X184499404Y-101832604D01*
X184499404Y-101832604D02*
X184451785Y-101737366D01*
X184451785Y-101737366D02*
X184404166Y-101689747D01*
X184404166Y-101689747D02*
X184308928Y-101642128D01*
X184308928Y-101642128D02*
X184118452Y-101594509D01*
X184118452Y-101594509D02*
X184023214Y-101546890D01*
X184023214Y-101546890D02*
X183975595Y-101499271D01*
X183975595Y-101499271D02*
X183927976Y-101404033D01*
X183927976Y-101404033D02*
X183927976Y-101308795D01*
X183927976Y-101308795D02*
X183975595Y-101213557D01*
X183975595Y-101213557D02*
X184023214Y-101165938D01*
X184023214Y-101165938D02*
X184118452Y-101118319D01*
X184118452Y-101118319D02*
X184356547Y-101118319D01*
X184356547Y-101118319D02*
X184499404Y-101165938D01*
X184832738Y-101118319D02*
X185070833Y-102118319D01*
X185070833Y-102118319D02*
X185261309Y-101404033D01*
X185261309Y-101404033D02*
X185451785Y-102118319D01*
X185451785Y-102118319D02*
X185689881Y-101118319D01*
X186594642Y-102118319D02*
X186023214Y-102118319D01*
X186308928Y-102118319D02*
X186308928Y-101118319D01*
X186308928Y-101118319D02*
X186213690Y-101261176D01*
X186213690Y-101261176D02*
X186118452Y-101356414D01*
X186118452Y-101356414D02*
X186023214Y-101404033D01*
X187213690Y-101118319D02*
X187308928Y-101118319D01*
X187308928Y-101118319D02*
X187404166Y-101165938D01*
X187404166Y-101165938D02*
X187451785Y-101213557D01*
X187451785Y-101213557D02*
X187499404Y-101308795D01*
X187499404Y-101308795D02*
X187547023Y-101499271D01*
X187547023Y-101499271D02*
X187547023Y-101737366D01*
X187547023Y-101737366D02*
X187499404Y-101927842D01*
X187499404Y-101927842D02*
X187451785Y-102023080D01*
X187451785Y-102023080D02*
X187404166Y-102070700D01*
X187404166Y-102070700D02*
X187308928Y-102118319D01*
X187308928Y-102118319D02*
X187213690Y-102118319D01*
X187213690Y-102118319D02*
X187118452Y-102070700D01*
X187118452Y-102070700D02*
X187070833Y-102023080D01*
X187070833Y-102023080D02*
X187023214Y-101927842D01*
X187023214Y-101927842D02*
X186975595Y-101737366D01*
X186975595Y-101737366D02*
X186975595Y-101499271D01*
X186975595Y-101499271D02*
X187023214Y-101308795D01*
X187023214Y-101308795D02*
X187070833Y-101213557D01*
X187070833Y-101213557D02*
X187118452Y-101165938D01*
X187118452Y-101165938D02*
X187213690Y-101118319D01*
X165354167Y-83022800D02*
X165497024Y-83070419D01*
X165497024Y-83070419D02*
X165735119Y-83070419D01*
X165735119Y-83070419D02*
X165830357Y-83022800D01*
X165830357Y-83022800D02*
X165877976Y-82975180D01*
X165877976Y-82975180D02*
X165925595Y-82879942D01*
X165925595Y-82879942D02*
X165925595Y-82784704D01*
X165925595Y-82784704D02*
X165877976Y-82689466D01*
X165877976Y-82689466D02*
X165830357Y-82641847D01*
X165830357Y-82641847D02*
X165735119Y-82594228D01*
X165735119Y-82594228D02*
X165544643Y-82546609D01*
X165544643Y-82546609D02*
X165449405Y-82498990D01*
X165449405Y-82498990D02*
X165401786Y-82451371D01*
X165401786Y-82451371D02*
X165354167Y-82356133D01*
X165354167Y-82356133D02*
X165354167Y-82260895D01*
X165354167Y-82260895D02*
X165401786Y-82165657D01*
X165401786Y-82165657D02*
X165449405Y-82118038D01*
X165449405Y-82118038D02*
X165544643Y-82070419D01*
X165544643Y-82070419D02*
X165782738Y-82070419D01*
X165782738Y-82070419D02*
X165925595Y-82118038D01*
X166258929Y-82070419D02*
X166497024Y-83070419D01*
X166497024Y-83070419D02*
X166687500Y-82356133D01*
X166687500Y-82356133D02*
X166877976Y-83070419D01*
X166877976Y-83070419D02*
X167116072Y-82070419D01*
X167925595Y-82403752D02*
X167925595Y-83070419D01*
X167687500Y-82022800D02*
X167449405Y-82737085D01*
X167449405Y-82737085D02*
X168068452Y-82737085D01*
X143383619Y-58070604D02*
X144193142Y-58070604D01*
X144193142Y-58070604D02*
X144288380Y-58022985D01*
X144288380Y-58022985D02*
X144336000Y-57975366D01*
X144336000Y-57975366D02*
X144383619Y-57880128D01*
X144383619Y-57880128D02*
X144383619Y-57689652D01*
X144383619Y-57689652D02*
X144336000Y-57594414D01*
X144336000Y-57594414D02*
X144288380Y-57546795D01*
X144288380Y-57546795D02*
X144193142Y-57499176D01*
X144193142Y-57499176D02*
X143383619Y-57499176D01*
X143478857Y-57070604D02*
X143431238Y-57022985D01*
X143431238Y-57022985D02*
X143383619Y-56927747D01*
X143383619Y-56927747D02*
X143383619Y-56689652D01*
X143383619Y-56689652D02*
X143431238Y-56594414D01*
X143431238Y-56594414D02*
X143478857Y-56546795D01*
X143478857Y-56546795D02*
X143574095Y-56499176D01*
X143574095Y-56499176D02*
X143669333Y-56499176D01*
X143669333Y-56499176D02*
X143812190Y-56546795D01*
X143812190Y-56546795D02*
X144383619Y-57118223D01*
X144383619Y-57118223D02*
X144383619Y-56499176D01*
X184154834Y-71379561D02*
X184154834Y-70379561D01*
X184154834Y-70379561D02*
X184392929Y-70379561D01*
X184392929Y-70379561D02*
X184535786Y-70427180D01*
X184535786Y-70427180D02*
X184631024Y-70522418D01*
X184631024Y-70522418D02*
X184678643Y-70617656D01*
X184678643Y-70617656D02*
X184726262Y-70808132D01*
X184726262Y-70808132D02*
X184726262Y-70950989D01*
X184726262Y-70950989D02*
X184678643Y-71141465D01*
X184678643Y-71141465D02*
X184631024Y-71236703D01*
X184631024Y-71236703D02*
X184535786Y-71331942D01*
X184535786Y-71331942D02*
X184392929Y-71379561D01*
X184392929Y-71379561D02*
X184154834Y-71379561D01*
X185107215Y-70474799D02*
X185154834Y-70427180D01*
X185154834Y-70427180D02*
X185250072Y-70379561D01*
X185250072Y-70379561D02*
X185488167Y-70379561D01*
X185488167Y-70379561D02*
X185583405Y-70427180D01*
X185583405Y-70427180D02*
X185631024Y-70474799D01*
X185631024Y-70474799D02*
X185678643Y-70570037D01*
X185678643Y-70570037D02*
X185678643Y-70665275D01*
X185678643Y-70665275D02*
X185631024Y-70808132D01*
X185631024Y-70808132D02*
X185059596Y-71379561D01*
X185059596Y-71379561D02*
X185678643Y-71379561D01*
X185976571Y-70196295D02*
X185519428Y-70196295D01*
X185748000Y-70196295D02*
X185748000Y-69396295D01*
X185748000Y-69396295D02*
X185671809Y-69510580D01*
X185671809Y-69510580D02*
X185595619Y-69586771D01*
X185595619Y-69586771D02*
X185519428Y-69624866D01*
X103754167Y-83694700D02*
X103897024Y-83742319D01*
X103897024Y-83742319D02*
X104135119Y-83742319D01*
X104135119Y-83742319D02*
X104230357Y-83694700D01*
X104230357Y-83694700D02*
X104277976Y-83647080D01*
X104277976Y-83647080D02*
X104325595Y-83551842D01*
X104325595Y-83551842D02*
X104325595Y-83456604D01*
X104325595Y-83456604D02*
X104277976Y-83361366D01*
X104277976Y-83361366D02*
X104230357Y-83313747D01*
X104230357Y-83313747D02*
X104135119Y-83266128D01*
X104135119Y-83266128D02*
X103944643Y-83218509D01*
X103944643Y-83218509D02*
X103849405Y-83170890D01*
X103849405Y-83170890D02*
X103801786Y-83123271D01*
X103801786Y-83123271D02*
X103754167Y-83028033D01*
X103754167Y-83028033D02*
X103754167Y-82932795D01*
X103754167Y-82932795D02*
X103801786Y-82837557D01*
X103801786Y-82837557D02*
X103849405Y-82789938D01*
X103849405Y-82789938D02*
X103944643Y-82742319D01*
X103944643Y-82742319D02*
X104182738Y-82742319D01*
X104182738Y-82742319D02*
X104325595Y-82789938D01*
X104658929Y-82742319D02*
X104897024Y-83742319D01*
X104897024Y-83742319D02*
X105087500Y-83028033D01*
X105087500Y-83028033D02*
X105277976Y-83742319D01*
X105277976Y-83742319D02*
X105516072Y-82742319D01*
X106420833Y-83742319D02*
X105849405Y-83742319D01*
X106135119Y-83742319D02*
X106135119Y-82742319D01*
X106135119Y-82742319D02*
X106039881Y-82885176D01*
X106039881Y-82885176D02*
X105944643Y-82980414D01*
X105944643Y-82980414D02*
X105849405Y-83028033D01*
X146304167Y-102070700D02*
X146447024Y-102118319D01*
X146447024Y-102118319D02*
X146685119Y-102118319D01*
X146685119Y-102118319D02*
X146780357Y-102070700D01*
X146780357Y-102070700D02*
X146827976Y-102023080D01*
X146827976Y-102023080D02*
X146875595Y-101927842D01*
X146875595Y-101927842D02*
X146875595Y-101832604D01*
X146875595Y-101832604D02*
X146827976Y-101737366D01*
X146827976Y-101737366D02*
X146780357Y-101689747D01*
X146780357Y-101689747D02*
X146685119Y-101642128D01*
X146685119Y-101642128D02*
X146494643Y-101594509D01*
X146494643Y-101594509D02*
X146399405Y-101546890D01*
X146399405Y-101546890D02*
X146351786Y-101499271D01*
X146351786Y-101499271D02*
X146304167Y-101404033D01*
X146304167Y-101404033D02*
X146304167Y-101308795D01*
X146304167Y-101308795D02*
X146351786Y-101213557D01*
X146351786Y-101213557D02*
X146399405Y-101165938D01*
X146399405Y-101165938D02*
X146494643Y-101118319D01*
X146494643Y-101118319D02*
X146732738Y-101118319D01*
X146732738Y-101118319D02*
X146875595Y-101165938D01*
X147208929Y-101118319D02*
X147447024Y-102118319D01*
X147447024Y-102118319D02*
X147637500Y-101404033D01*
X147637500Y-101404033D02*
X147827976Y-102118319D01*
X147827976Y-102118319D02*
X148066072Y-101118319D01*
X148589881Y-101546890D02*
X148494643Y-101499271D01*
X148494643Y-101499271D02*
X148447024Y-101451652D01*
X148447024Y-101451652D02*
X148399405Y-101356414D01*
X148399405Y-101356414D02*
X148399405Y-101308795D01*
X148399405Y-101308795D02*
X148447024Y-101213557D01*
X148447024Y-101213557D02*
X148494643Y-101165938D01*
X148494643Y-101165938D02*
X148589881Y-101118319D01*
X148589881Y-101118319D02*
X148780357Y-101118319D01*
X148780357Y-101118319D02*
X148875595Y-101165938D01*
X148875595Y-101165938D02*
X148923214Y-101213557D01*
X148923214Y-101213557D02*
X148970833Y-101308795D01*
X148970833Y-101308795D02*
X148970833Y-101356414D01*
X148970833Y-101356414D02*
X148923214Y-101451652D01*
X148923214Y-101451652D02*
X148875595Y-101499271D01*
X148875595Y-101499271D02*
X148780357Y-101546890D01*
X148780357Y-101546890D02*
X148589881Y-101546890D01*
X148589881Y-101546890D02*
X148494643Y-101594509D01*
X148494643Y-101594509D02*
X148447024Y-101642128D01*
X148447024Y-101642128D02*
X148399405Y-101737366D01*
X148399405Y-101737366D02*
X148399405Y-101927842D01*
X148399405Y-101927842D02*
X148447024Y-102023080D01*
X148447024Y-102023080D02*
X148494643Y-102070700D01*
X148494643Y-102070700D02*
X148589881Y-102118319D01*
X148589881Y-102118319D02*
X148780357Y-102118319D01*
X148780357Y-102118319D02*
X148875595Y-102070700D01*
X148875595Y-102070700D02*
X148923214Y-102023080D01*
X148923214Y-102023080D02*
X148970833Y-101927842D01*
X148970833Y-101927842D02*
X148970833Y-101737366D01*
X148970833Y-101737366D02*
X148923214Y-101642128D01*
X148923214Y-101642128D02*
X148875595Y-101594509D01*
X148875595Y-101594509D02*
X148780357Y-101546890D01*
X107727976Y-54445700D02*
X107870833Y-54493319D01*
X107870833Y-54493319D02*
X108108928Y-54493319D01*
X108108928Y-54493319D02*
X108204166Y-54445700D01*
X108204166Y-54445700D02*
X108251785Y-54398080D01*
X108251785Y-54398080D02*
X108299404Y-54302842D01*
X108299404Y-54302842D02*
X108299404Y-54207604D01*
X108299404Y-54207604D02*
X108251785Y-54112366D01*
X108251785Y-54112366D02*
X108204166Y-54064747D01*
X108204166Y-54064747D02*
X108108928Y-54017128D01*
X108108928Y-54017128D02*
X107918452Y-53969509D01*
X107918452Y-53969509D02*
X107823214Y-53921890D01*
X107823214Y-53921890D02*
X107775595Y-53874271D01*
X107775595Y-53874271D02*
X107727976Y-53779033D01*
X107727976Y-53779033D02*
X107727976Y-53683795D01*
X107727976Y-53683795D02*
X107775595Y-53588557D01*
X107775595Y-53588557D02*
X107823214Y-53540938D01*
X107823214Y-53540938D02*
X107918452Y-53493319D01*
X107918452Y-53493319D02*
X108156547Y-53493319D01*
X108156547Y-53493319D02*
X108299404Y-53540938D01*
X108632738Y-53493319D02*
X108870833Y-54493319D01*
X108870833Y-54493319D02*
X109061309Y-53779033D01*
X109061309Y-53779033D02*
X109251785Y-54493319D01*
X109251785Y-54493319D02*
X109489881Y-53493319D01*
X110394642Y-54493319D02*
X109823214Y-54493319D01*
X110108928Y-54493319D02*
X110108928Y-53493319D01*
X110108928Y-53493319D02*
X110013690Y-53636176D01*
X110013690Y-53636176D02*
X109918452Y-53731414D01*
X109918452Y-53731414D02*
X109823214Y-53779033D01*
X111251785Y-53493319D02*
X111061309Y-53493319D01*
X111061309Y-53493319D02*
X110966071Y-53540938D01*
X110966071Y-53540938D02*
X110918452Y-53588557D01*
X110918452Y-53588557D02*
X110823214Y-53731414D01*
X110823214Y-53731414D02*
X110775595Y-53921890D01*
X110775595Y-53921890D02*
X110775595Y-54302842D01*
X110775595Y-54302842D02*
X110823214Y-54398080D01*
X110823214Y-54398080D02*
X110870833Y-54445700D01*
X110870833Y-54445700D02*
X110966071Y-54493319D01*
X110966071Y-54493319D02*
X111156547Y-54493319D01*
X111156547Y-54493319D02*
X111251785Y-54445700D01*
X111251785Y-54445700D02*
X111299404Y-54398080D01*
X111299404Y-54398080D02*
X111347023Y-54302842D01*
X111347023Y-54302842D02*
X111347023Y-54064747D01*
X111347023Y-54064747D02*
X111299404Y-53969509D01*
X111299404Y-53969509D02*
X111251785Y-53921890D01*
X111251785Y-53921890D02*
X111156547Y-53874271D01*
X111156547Y-53874271D02*
X110966071Y-53874271D01*
X110966071Y-53874271D02*
X110870833Y-53921890D01*
X110870833Y-53921890D02*
X110823214Y-53969509D01*
X110823214Y-53969509D02*
X110775595Y-54064747D01*
X191547916Y-74836069D02*
X191214583Y-74359878D01*
X190976488Y-74836069D02*
X190976488Y-73836069D01*
X190976488Y-73836069D02*
X191357440Y-73836069D01*
X191357440Y-73836069D02*
X191452678Y-73883688D01*
X191452678Y-73883688D02*
X191500297Y-73931307D01*
X191500297Y-73931307D02*
X191547916Y-74026545D01*
X191547916Y-74026545D02*
X191547916Y-74169402D01*
X191547916Y-74169402D02*
X191500297Y-74264640D01*
X191500297Y-74264640D02*
X191452678Y-74312259D01*
X191452678Y-74312259D02*
X191357440Y-74359878D01*
X191357440Y-74359878D02*
X190976488Y-74359878D01*
X191976488Y-74312259D02*
X192309821Y-74312259D01*
X192452678Y-74836069D02*
X191976488Y-74836069D01*
X191976488Y-74836069D02*
X191976488Y-73836069D01*
X191976488Y-73836069D02*
X192452678Y-73836069D01*
X193214583Y-74312259D02*
X192881250Y-74312259D01*
X192881250Y-74836069D02*
X192881250Y-73836069D01*
X192881250Y-73836069D02*
X193357440Y-73836069D01*
X193881250Y-73836069D02*
X193881250Y-74074164D01*
X193643155Y-73978926D02*
X193881250Y-74074164D01*
X193881250Y-74074164D02*
X194119345Y-73978926D01*
X193738393Y-74264640D02*
X193881250Y-74074164D01*
X193881250Y-74074164D02*
X194024107Y-74264640D01*
X194643155Y-73836069D02*
X194643155Y-74074164D01*
X194405060Y-73978926D02*
X194643155Y-74074164D01*
X194643155Y-74074164D02*
X194881250Y-73978926D01*
X194500298Y-74264640D02*
X194643155Y-74074164D01*
X194643155Y-74074164D02*
X194786012Y-74264640D01*
X127266667Y-83020700D02*
X127409524Y-83068319D01*
X127409524Y-83068319D02*
X127647619Y-83068319D01*
X127647619Y-83068319D02*
X127742857Y-83020700D01*
X127742857Y-83020700D02*
X127790476Y-82973080D01*
X127790476Y-82973080D02*
X127838095Y-82877842D01*
X127838095Y-82877842D02*
X127838095Y-82782604D01*
X127838095Y-82782604D02*
X127790476Y-82687366D01*
X127790476Y-82687366D02*
X127742857Y-82639747D01*
X127742857Y-82639747D02*
X127647619Y-82592128D01*
X127647619Y-82592128D02*
X127457143Y-82544509D01*
X127457143Y-82544509D02*
X127361905Y-82496890D01*
X127361905Y-82496890D02*
X127314286Y-82449271D01*
X127314286Y-82449271D02*
X127266667Y-82354033D01*
X127266667Y-82354033D02*
X127266667Y-82258795D01*
X127266667Y-82258795D02*
X127314286Y-82163557D01*
X127314286Y-82163557D02*
X127361905Y-82115938D01*
X127361905Y-82115938D02*
X127457143Y-82068319D01*
X127457143Y-82068319D02*
X127695238Y-82068319D01*
X127695238Y-82068319D02*
X127838095Y-82115938D01*
X128171429Y-82068319D02*
X128409524Y-83068319D01*
X128409524Y-83068319D02*
X128600000Y-82354033D01*
X128600000Y-82354033D02*
X128790476Y-83068319D01*
X128790476Y-83068319D02*
X129028572Y-82068319D01*
X129361905Y-82163557D02*
X129409524Y-82115938D01*
X129409524Y-82115938D02*
X129504762Y-82068319D01*
X129504762Y-82068319D02*
X129742857Y-82068319D01*
X129742857Y-82068319D02*
X129838095Y-82115938D01*
X129838095Y-82115938D02*
X129885714Y-82163557D01*
X129885714Y-82163557D02*
X129933333Y-82258795D01*
X129933333Y-82258795D02*
X129933333Y-82354033D01*
X129933333Y-82354033D02*
X129885714Y-82496890D01*
X129885714Y-82496890D02*
X129314286Y-83068319D01*
X129314286Y-83068319D02*
X129933333Y-83068319D01*
D15*
%TO.C,U1*%
X173785200Y-66020300D02*
X173785200Y-48875300D01*
X175690200Y-67925300D02*
X189660200Y-67925300D01*
X178180200Y-46970300D02*
X178183928Y-46060028D01*
X178683928Y-45560300D02*
X186679200Y-45560300D01*
X187179200Y-46060300D02*
X187179200Y-46970300D01*
D11*
X189660200Y-46970300D02*
X175690200Y-46970300D01*
D15*
X189660200Y-46970300D02*
X175690200Y-46970300D01*
X191565200Y-66020300D02*
X191565200Y-48875300D01*
X173785200Y-48875300D02*
G75*
G02*
X175690200Y-46970300I1905001J-1D01*
G01*
X175690200Y-67925300D02*
G75*
G02*
X173785200Y-66020300I1J1905001D01*
G01*
X178183928Y-46060028D02*
G75*
G02*
X178683928Y-45560301I500018J-291D01*
G01*
X186679200Y-45560300D02*
G75*
G02*
X187179200Y-46060300I0J-500000D01*
G01*
X189660200Y-46970300D02*
G75*
G02*
X191565200Y-48875300I0J-1905000D01*
G01*
X191565200Y-66020300D02*
G75*
G02*
X189660200Y-67925300I-1905000J0D01*
G01*
D16*
X173977200Y-47211300D02*
G75*
G02*
X173473200Y-47211300I-252000J0D01*
G01*
X173473200Y-47211300D02*
G75*
G02*
X173977200Y-47211300I252000J0D01*
G01*
X175120200Y-48091300D02*
G75*
G02*
X174616200Y-48091300I-252000J0D01*
G01*
X174616200Y-48091300D02*
G75*
G02*
X175120200Y-48091300I252000J0D01*
G01*
D17*
%TO.C,R2*%
X164900000Y-68727100D02*
X164900000Y-72567100D01*
X164900000Y-72567100D02*
X166740000Y-72567100D01*
X165820000Y-67777100D02*
X165820000Y-68727100D01*
X165820000Y-73517100D02*
X165820000Y-72567100D01*
X166740000Y-68727100D02*
X164900000Y-68727100D01*
X166740000Y-72567100D02*
X166740000Y-68727100D01*
%TO.C,D1*%
X173091300Y-68721200D02*
X173091300Y-72721200D01*
X173091300Y-68721200D02*
X178691300Y-68721200D01*
X173091300Y-72721200D02*
X178091300Y-72721200D01*
X178691300Y-72121200D02*
X178091300Y-72721200D01*
X178691300Y-72121200D02*
X178691300Y-68721200D01*
%TO.C,SW6*%
X102552500Y-102552500D02*
X116522500Y-102552500D01*
X102552500Y-116522500D02*
X102552500Y-102552500D01*
X116522500Y-102552500D02*
X116522500Y-116522500D01*
X116522500Y-116522500D02*
X102552500Y-116522500D01*
%TO.C,R1*%
X167196300Y-68723700D02*
X167196300Y-72563700D01*
X167196300Y-72563700D02*
X169036300Y-72563700D01*
X168116300Y-67773700D02*
X168116300Y-68723700D01*
X168116300Y-73513700D02*
X168116300Y-72563700D01*
X169036300Y-68723700D02*
X167196300Y-68723700D01*
X169036300Y-72563700D02*
X169036300Y-68723700D01*
%TO.C,SW13*%
X140652500Y-121602500D02*
X154622500Y-121602500D01*
X140652500Y-135572500D02*
X140652500Y-121602500D01*
X154622500Y-121602500D02*
X154622500Y-135572500D01*
X154622500Y-135572500D02*
X140652500Y-135572500D01*
%TO.C,SW14*%
X159702500Y-121602500D02*
X173672500Y-121602500D01*
X159702500Y-135572500D02*
X159702500Y-121602500D01*
X173672500Y-121602500D02*
X173672500Y-135572500D01*
X173672500Y-135572500D02*
X159702500Y-135572500D01*
%TO.C,SW9*%
X159702500Y-102552500D02*
X173672500Y-102552500D01*
X159702500Y-116522500D02*
X159702500Y-102552500D01*
X173672500Y-102552500D02*
X173672500Y-116522500D01*
X173672500Y-116522500D02*
X159702500Y-116522500D01*
%TO.C,SW5*%
X178187500Y-86387500D02*
X178787500Y-86387500D01*
X178487500Y-86687500D02*
X178187500Y-86387500D01*
X178787500Y-86387500D02*
X178487500Y-86687500D01*
X179887500Y-84587500D02*
X179887500Y-96387500D01*
X183987500Y-84587500D02*
X179887500Y-84587500D01*
X183987500Y-96387500D02*
X179887500Y-96387500D01*
X185487500Y-90487500D02*
X186487500Y-90487500D01*
X185987500Y-89987500D02*
X185987500Y-90987500D01*
X187987500Y-84587500D02*
X192087500Y-84587500D01*
X192087500Y-84587500D02*
X192087500Y-86987500D01*
X192087500Y-89187500D02*
X192087500Y-91787500D01*
X192087500Y-93987500D02*
X192087500Y-96387500D01*
X192087500Y-96387500D02*
X187987500Y-96387500D01*
X188987500Y-90487500D02*
G75*
G02*
X182987500Y-90487500I-3000000J0D01*
G01*
X182987500Y-90487500D02*
G75*
G02*
X188987500Y-90487500I3000000J0D01*
G01*
%TO.C,SW12*%
X121602500Y-121602500D02*
X135572500Y-121602500D01*
X121602500Y-135572500D02*
X121602500Y-121602500D01*
X135572500Y-121602500D02*
X135572500Y-135572500D01*
X135572500Y-135572500D02*
X121602500Y-135572500D01*
%TO.C,SW3*%
X140652500Y-83513100D02*
X154622500Y-83513100D01*
X140652500Y-97483100D02*
X140652500Y-83513100D01*
X154622500Y-83513100D02*
X154622500Y-97483100D01*
X154622500Y-97483100D02*
X140652500Y-97483100D01*
%TO.C,SW11*%
X102552500Y-121602500D02*
X116522500Y-121602500D01*
X102552500Y-135572500D02*
X102552500Y-121602500D01*
X116522500Y-121602500D02*
X116522500Y-135572500D01*
X116522500Y-135572500D02*
X102552500Y-135572500D01*
%TO.C,SW15*%
X178752500Y-121602500D02*
X192722500Y-121602500D01*
X178752500Y-135572500D02*
X178752500Y-121602500D01*
X192722500Y-121602500D02*
X192722500Y-135572500D01*
X192722500Y-135572500D02*
X178752500Y-135572500D01*
%TO.C,SW7*%
X121602500Y-102552500D02*
X135572500Y-102552500D01*
X121602500Y-116522500D02*
X121602500Y-102552500D01*
X135572500Y-102552500D02*
X135572500Y-116522500D01*
X135572500Y-116522500D02*
X121602500Y-116522500D01*
%TO.C,SW10*%
X178752500Y-102552500D02*
X192722500Y-102552500D01*
X178752500Y-116522500D02*
X178752500Y-102552500D01*
X192722500Y-102552500D02*
X192722500Y-116522500D01*
X192722500Y-116522500D02*
X178752500Y-116522500D01*
%TO.C,SW4*%
X159702500Y-83504600D02*
X173672500Y-83504600D01*
X159702500Y-97474600D02*
X159702500Y-83504600D01*
X173672500Y-83504600D02*
X173672500Y-97474600D01*
X173672500Y-97474600D02*
X159702500Y-97474600D01*
%TO.C,U2*%
X144768800Y-53448700D02*
X145013800Y-53448700D01*
X144768800Y-57308700D02*
X144768800Y-53448700D01*
X144768800Y-57308700D02*
X144768800Y-61168700D01*
X144768800Y-61168700D02*
X145013800Y-61168700D01*
X162888800Y-53448700D02*
X162643800Y-53448700D01*
X162888800Y-57308700D02*
X162888800Y-53448700D01*
X162888800Y-57308700D02*
X162888800Y-61168700D01*
X162888800Y-61168700D02*
X162643800Y-61168700D01*
X145013800Y-62021200D02*
X144543800Y-62361200D01*
X144543800Y-61681200D01*
X145013800Y-62021200D01*
G36*
X145013800Y-62021200D02*
G01*
X144543800Y-62361200D01*
X144543800Y-61681200D01*
X145013800Y-62021200D01*
G37*
%TO.C,D2*%
X186148000Y-68709000D02*
X186148000Y-72709000D01*
X186148000Y-68709000D02*
X191748000Y-68709000D01*
X186148000Y-72709000D02*
X191148000Y-72709000D01*
X191748000Y-72109000D02*
X191148000Y-72709000D01*
X191748000Y-72109000D02*
X191748000Y-68709000D01*
%TO.C,SW1*%
X101987500Y-86387500D02*
X102587500Y-86387500D01*
X102287500Y-86687500D02*
X101987500Y-86387500D01*
X102587500Y-86387500D02*
X102287500Y-86687500D01*
X103687500Y-84587500D02*
X103687500Y-96387500D01*
X107787500Y-84587500D02*
X103687500Y-84587500D01*
X107787500Y-96387500D02*
X103687500Y-96387500D01*
X109287500Y-90487500D02*
X110287500Y-90487500D01*
X109787500Y-89987500D02*
X109787500Y-90987500D01*
X111787500Y-84587500D02*
X115887500Y-84587500D01*
X115887500Y-84587500D02*
X115887500Y-86987500D01*
X115887500Y-89187500D02*
X115887500Y-91787500D01*
X115887500Y-93987500D02*
X115887500Y-96387500D01*
X115887500Y-96387500D02*
X111787500Y-96387500D01*
X112787500Y-90487500D02*
G75*
G02*
X106787500Y-90487500I-3000000J0D01*
G01*
X106787500Y-90487500D02*
G75*
G02*
X112787500Y-90487500I3000000J0D01*
G01*
%TO.C,SW8*%
X140652500Y-102552500D02*
X154622500Y-102552500D01*
X140652500Y-116522500D02*
X140652500Y-102552500D01*
X154622500Y-102552500D02*
X154622500Y-116522500D01*
X154622500Y-116522500D02*
X140652500Y-116522500D01*
%TO.C,SW16*%
X102552500Y-54927500D02*
X116522500Y-54927500D01*
X102552500Y-68897500D02*
X102552500Y-54927500D01*
X116522500Y-54927500D02*
X116522500Y-68897500D01*
X116522500Y-68897500D02*
X102552500Y-68897500D01*
%TO.C,SW2*%
X121615000Y-83502500D02*
X135585000Y-83502500D01*
X121615000Y-97472500D02*
X121615000Y-83502500D01*
X135585000Y-83502500D02*
X135585000Y-97472500D01*
X135585000Y-97472500D02*
X121615000Y-97472500D01*
%TD*%
M02*
