%TF.GenerationSoftware,KiCad,Pcbnew,8.0.8*%
%TF.CreationDate,2025-02-16T20:36:26+13:00*%
%TF.ProjectId,hackpad,6861636b-7061-4642-9e6b-696361645f70,rev?*%
%TF.SameCoordinates,Original*%
%TF.FileFunction,Soldermask,Top*%
%TF.FilePolarity,Negative*%
%FSLAX46Y46*%
G04 Gerber Fmt 4.6, Leading zero omitted, Abs format (unit mm)*
G04 Created by KiCad (PCBNEW 8.0.8) date 2025-02-16 20:36:26*
%MOMM*%
%LPD*%
G01*
G04 APERTURE LIST*
G04 Aperture macros list*
%AMRoundRect*
0 Rectangle with rounded corners*
0 $1 Rounding radius*
0 $2 $3 $4 $5 $6 $7 $8 $9 X,Y pos of 4 corners*
0 Add a 4 corners polygon primitive as box body*
4,1,4,$2,$3,$4,$5,$6,$7,$8,$9,$2,$3,0*
0 Add four circle primitives for the rounded corners*
1,1,$1+$1,$2,$3*
1,1,$1+$1,$4,$5*
1,1,$1+$1,$6,$7*
1,1,$1+$1,$8,$9*
0 Add four rect primitives between the rounded corners*
20,1,$1+$1,$2,$3,$4,$5,0*
20,1,$1+$1,$4,$5,$6,$7,0*
20,1,$1+$1,$6,$7,$8,$9,0*
20,1,$1+$1,$8,$9,$2,$3,0*%
G04 Aperture macros list end*
%ADD10RoundRect,0.152400X1.063600X0.609600X-1.063600X0.609600X-1.063600X-0.609600X1.063600X-0.609600X0*%
%ADD11C,1.524000*%
%ADD12RoundRect,0.152400X-1.063600X-0.609600X1.063600X-0.609600X1.063600X0.609600X-1.063600X0.609600X0*%
%ADD13C,1.400000*%
%ADD14O,1.400000X1.400000*%
%ADD15R,1.600000X0.850000*%
%ADD16C,1.700000*%
%ADD17C,4.000000*%
%ADD18C,2.200000*%
%ADD19R,2.000000X2.000000*%
%ADD20C,2.000000*%
%ADD21R,3.200000X2.000000*%
%ADD22C,3.200000*%
%ADD23RoundRect,0.150000X0.150000X-0.875000X0.150000X0.875000X-0.150000X0.875000X-0.150000X-0.875000X0*%
G04 APERTURE END LIST*
D10*
%TO.C,U1*%
X174220200Y-49891300D03*
D11*
X175055200Y-49891300D03*
D10*
X174220200Y-52431300D03*
D11*
X175055200Y-52431300D03*
D10*
X174220200Y-54971300D03*
D11*
X175055200Y-54971300D03*
D10*
X174220200Y-57511300D03*
D11*
X175055200Y-57511300D03*
D10*
X174220200Y-60051300D03*
D11*
X175055200Y-60051300D03*
D10*
X174220200Y-62591300D03*
D11*
X175055200Y-62591300D03*
D10*
X174220200Y-65131300D03*
D11*
X175055200Y-65131300D03*
X190295200Y-65131300D03*
D12*
X191130200Y-65131300D03*
D11*
X190295200Y-62591300D03*
D12*
X191130200Y-62591300D03*
D11*
X190295200Y-60051300D03*
D12*
X191130200Y-60051300D03*
D11*
X190295200Y-57511300D03*
D12*
X191130200Y-57511300D03*
D11*
X190295200Y-54971300D03*
D12*
X191130200Y-54971300D03*
D11*
X190295200Y-52431300D03*
D12*
X191130200Y-52431300D03*
D11*
X190295200Y-49891300D03*
D12*
X191130200Y-49891300D03*
%TD*%
D13*
%TO.C,R2*%
X165820000Y-74457100D03*
D14*
X165820000Y-66837100D03*
%TD*%
D15*
%TO.C,D1*%
X174141300Y-69846200D03*
X174141300Y-71596200D03*
X177641300Y-71596200D03*
X177641300Y-69846200D03*
%TD*%
D16*
%TO.C,SW6*%
X104457500Y-109537500D03*
D17*
X109537500Y-109537500D03*
D16*
X114617500Y-109537500D03*
D18*
X112077500Y-104457500D03*
X105727500Y-106997500D03*
%TD*%
D13*
%TO.C,R1*%
X168116300Y-74453700D03*
D14*
X168116300Y-66833700D03*
%TD*%
D16*
%TO.C,SW13*%
X142557500Y-128587500D03*
D17*
X147637500Y-128587500D03*
D16*
X152717500Y-128587500D03*
D18*
X150177500Y-123507500D03*
X143827500Y-126047500D03*
%TD*%
D16*
%TO.C,SW14*%
X161607500Y-128587500D03*
D17*
X166687500Y-128587500D03*
D16*
X171767500Y-128587500D03*
D18*
X169227500Y-123507500D03*
X162877500Y-126047500D03*
%TD*%
D16*
%TO.C,SW9*%
X161607500Y-109537500D03*
D17*
X166687500Y-109537500D03*
D16*
X171767500Y-109537500D03*
D18*
X169227500Y-104457500D03*
X162877500Y-106997500D03*
%TD*%
D19*
%TO.C,SW5*%
X178487500Y-87987500D03*
D20*
X178487500Y-92987500D03*
X178487500Y-90487500D03*
D21*
X185987500Y-84887500D03*
X185987500Y-96087500D03*
D20*
X192987500Y-92987500D03*
X192987500Y-87987500D03*
%TD*%
D16*
%TO.C,SW12*%
X123507500Y-128587500D03*
D17*
X128587500Y-128587500D03*
D16*
X133667500Y-128587500D03*
D18*
X131127500Y-123507500D03*
X124777500Y-126047500D03*
%TD*%
D22*
%TO.C,REF\u002A\u002A*%
X119062500Y-59531250D03*
%TD*%
D16*
%TO.C,SW3*%
X142557500Y-90498100D03*
D17*
X147637500Y-90487468D03*
D16*
X152717500Y-90498100D03*
D18*
X150177500Y-85418100D03*
X143827500Y-87958100D03*
%TD*%
D22*
%TO.C,REF\u002A\u002A*%
X119062500Y-119062500D03*
%TD*%
D16*
%TO.C,SW11*%
X104457500Y-128587500D03*
D17*
X109537500Y-128587500D03*
D16*
X114617500Y-128587500D03*
D18*
X112077500Y-123507500D03*
X105727500Y-126047500D03*
%TD*%
D22*
%TO.C,REF\u002A\u002A*%
X176212500Y-138112500D03*
%TD*%
D16*
%TO.C,SW15*%
X180657500Y-128587500D03*
D17*
X185737500Y-128587500D03*
D16*
X190817500Y-128587500D03*
D18*
X188277500Y-123507500D03*
X181927500Y-126047500D03*
%TD*%
D16*
%TO.C,SW7*%
X123507500Y-109537500D03*
D17*
X128587500Y-109537500D03*
D16*
X133667500Y-109537500D03*
D18*
X131127500Y-104457500D03*
X124777500Y-106997500D03*
%TD*%
D16*
%TO.C,SW10*%
X180657500Y-109537500D03*
D17*
X185737500Y-109537500D03*
D16*
X190817500Y-109537500D03*
D18*
X188277500Y-104457500D03*
X181927500Y-106997500D03*
%TD*%
D16*
%TO.C,SW4*%
X161607500Y-90489600D03*
D17*
X166687500Y-90487548D03*
D16*
X171767500Y-90489600D03*
D18*
X169227500Y-85409600D03*
X162877500Y-87949600D03*
%TD*%
D23*
%TO.C,U2*%
X145573800Y-61958700D03*
X146843800Y-61958700D03*
X148113800Y-61958700D03*
X149383800Y-61958700D03*
X150653800Y-61958700D03*
X151923800Y-61958700D03*
X153193800Y-61958700D03*
X154463800Y-61958700D03*
X155733800Y-61958700D03*
X157003800Y-61958700D03*
X158273800Y-61958700D03*
X159543800Y-61958700D03*
X160813800Y-61958700D03*
X162083800Y-61958700D03*
X162083800Y-52658700D03*
X160813800Y-52658700D03*
X159543800Y-52658700D03*
X158273800Y-52658700D03*
X157003800Y-52658700D03*
X155733800Y-52658700D03*
X154463800Y-52658700D03*
X153193800Y-52658700D03*
X151923800Y-52658700D03*
X150653800Y-52658700D03*
X149383800Y-52658700D03*
X148113800Y-52658700D03*
X146843800Y-52658700D03*
X145573800Y-52658700D03*
%TD*%
D15*
%TO.C,D2*%
X187198000Y-69834000D03*
X187198000Y-71584000D03*
X190698000Y-71584000D03*
X190698000Y-69834000D03*
%TD*%
D19*
%TO.C,SW1*%
X102287500Y-87987500D03*
D20*
X102287500Y-92987500D03*
X102287500Y-90487500D03*
D21*
X109787500Y-84887500D03*
X109787500Y-96087500D03*
D20*
X116787500Y-92987500D03*
X116787500Y-87987500D03*
%TD*%
D16*
%TO.C,SW8*%
X142557500Y-109537500D03*
D17*
X147637500Y-109537500D03*
D16*
X152717500Y-109537500D03*
D18*
X150177500Y-104457500D03*
X143827500Y-106997500D03*
%TD*%
D16*
%TO.C,SW16*%
X104457500Y-61912500D03*
D17*
X109537500Y-61912500D03*
D16*
X114617500Y-61912500D03*
D18*
X112077500Y-56832500D03*
X105727500Y-59372500D03*
%TD*%
D22*
%TO.C,REF\u002A\u002A*%
X192881250Y-78581250D03*
%TD*%
D16*
%TO.C,SW2*%
X123520000Y-90487500D03*
D17*
X128600000Y-90487500D03*
D16*
X133680000Y-90487500D03*
D18*
X131140000Y-85407500D03*
X124790000Y-87947500D03*
%TD*%
M02*
