%TF.GenerationSoftware,KiCad,Pcbnew,8.0.8*%
%TF.CreationDate,2025-02-16T20:36:26+13:00*%
%TF.ProjectId,hackpad,6861636b-7061-4642-9e6b-696361645f70,rev?*%
%TF.SameCoordinates,Original*%
%TF.FileFunction,Copper,L2,Bot*%
%TF.FilePolarity,Positive*%
%FSLAX46Y46*%
G04 Gerber Fmt 4.6, Leading zero omitted, Abs format (unit mm)*
G04 Created by KiCad (PCBNEW 8.0.8) date 2025-02-16 20:36:26*
%MOMM*%
%LPD*%
G01*
G04 APERTURE LIST*
%TA.AperFunction,ComponentPad*%
%ADD10C,1.524000*%
%TD*%
%TA.AperFunction,ComponentPad*%
%ADD11C,1.400000*%
%TD*%
%TA.AperFunction,ComponentPad*%
%ADD12O,1.400000X1.400000*%
%TD*%
%TA.AperFunction,ComponentPad*%
%ADD13C,2.200000*%
%TD*%
%TA.AperFunction,ComponentPad*%
%ADD14R,2.000000X2.000000*%
%TD*%
%TA.AperFunction,ComponentPad*%
%ADD15C,2.000000*%
%TD*%
%TA.AperFunction,ComponentPad*%
%ADD16R,3.200000X2.000000*%
%TD*%
%TA.AperFunction,ViaPad*%
%ADD17C,0.600000*%
%TD*%
%TA.AperFunction,Conductor*%
%ADD18C,0.200000*%
%TD*%
G04 APERTURE END LIST*
D10*
%TO.P,U1,1,GPIO26/ADC0/A0*%
%TO.N,unconnected-(U1-GPIO26{slash}ADC0{slash}A0-Pad1)*%
X175055200Y-49891300D03*
%TO.P,U1,2,GPIO27/ADC1/A1*%
%TO.N,unconnected-(U1-GPIO27{slash}ADC1{slash}A1-Pad2)*%
X175055200Y-52431300D03*
%TO.P,U1,3,GPIO28/ADC2/A2*%
%TO.N,unconnected-(U1-GPIO28{slash}ADC2{slash}A2-Pad3)*%
X175055200Y-54971300D03*
%TO.P,U1,4,GPIO29/ADC3/A3*%
%TO.N,Net-(U1-GPIO29{slash}ADC3{slash}A3)*%
X175055200Y-57511300D03*
%TO.P,U1,5,GPIO6/SDA*%
%TO.N,Net-(U1-GPIO6{slash}SDA)*%
X175055200Y-60051300D03*
%TO.P,U1,6,GPIO7/SCL*%
%TO.N,Net-(U1-GPIO7{slash}SCL)*%
X175055200Y-62591300D03*
%TO.P,U1,7,GPIO0/TX*%
%TO.N,Net-(D1-DIN)*%
X175055200Y-65131300D03*
%TO.P,U1,8,GPIO1/RX*%
%TO.N,Net-(U1-GPIO1{slash}RX)*%
X190295200Y-65131300D03*
%TO.P,U1,9,GPIO2/SCK*%
%TO.N,Net-(U1-GPIO2{slash}SCK)*%
X190295200Y-62591300D03*
%TO.P,U1,10,GPIO4/MISO*%
%TO.N,Net-(U1-GPIO4{slash}MISO)*%
X190295200Y-60051300D03*
%TO.P,U1,11,GPIO3/MOSI*%
%TO.N,Net-(U1-GPIO3{slash}MOSI)*%
X190295200Y-57511300D03*
%TO.P,U1,12,3V3*%
%TO.N,+3.3V*%
X190295200Y-54971300D03*
%TO.P,U1,13,GND*%
%TO.N,GND*%
X190295200Y-52431300D03*
%TO.P,U1,14,VBUS*%
%TO.N,+5V*%
X190295200Y-49891300D03*
%TD*%
D11*
%TO.P,R2,1*%
%TO.N,+3.3V*%
X165820000Y-74457100D03*
D12*
%TO.P,R2,2*%
%TO.N,Net-(U1-GPIO6{slash}SDA)*%
X165820000Y-66837100D03*
%TD*%
D13*
%TO.P,SW6,1,1*%
%TO.N,GND*%
X112077500Y-104457500D03*
%TO.P,SW6,2,2*%
%TO.N,Net-(U1-GPIO1{slash}RX)*%
X105727500Y-106997500D03*
%TD*%
D11*
%TO.P,R1,1*%
%TO.N,+3.3V*%
X168116300Y-74453700D03*
D12*
%TO.P,R1,2*%
%TO.N,Net-(U1-GPIO7{slash}SCL)*%
X168116300Y-66833700D03*
%TD*%
D13*
%TO.P,SW13,1,1*%
%TO.N,Net-(SW10-Pad1)*%
X150177500Y-123507500D03*
%TO.P,SW13,2,2*%
%TO.N,Net-(U2-GPA4)*%
X143827500Y-126047500D03*
%TD*%
%TO.P,SW14,1,1*%
%TO.N,Net-(SW10-Pad1)*%
X169227500Y-123507500D03*
%TO.P,SW14,2,2*%
%TO.N,Net-(U2-GPA3)*%
X162877500Y-126047500D03*
%TD*%
%TO.P,SW9,1,1*%
%TO.N,Net-(SW10-Pad1)*%
X169227500Y-104457500D03*
%TO.P,SW9,2,2*%
%TO.N,Net-(U2-GPB7)*%
X162877500Y-106997500D03*
%TD*%
D14*
%TO.P,SW5,A,A*%
%TO.N,Net-(U2-GPB4)*%
X178487500Y-87987500D03*
D15*
%TO.P,SW5,B,B*%
%TO.N,Net-(U2-GPB5)*%
X178487500Y-92987500D03*
%TO.P,SW5,C,C*%
%TO.N,GND*%
X178487500Y-90487500D03*
D16*
%TO.P,SW5,MP*%
%TO.N,N/C*%
X185987500Y-84887500D03*
X185987500Y-96087500D03*
D15*
%TO.P,SW5,S1,S1*%
%TO.N,Net-(U2-GPB3)*%
X192987500Y-92987500D03*
%TO.P,SW5,S2,S2*%
%TO.N,GND*%
X192987500Y-87987500D03*
%TD*%
D13*
%TO.P,SW12,1,1*%
%TO.N,Net-(SW10-Pad1)*%
X131127500Y-123507500D03*
%TO.P,SW12,2,2*%
%TO.N,Net-(U2-GPA1)*%
X124777500Y-126047500D03*
%TD*%
%TO.P,SW3,1,1*%
%TO.N,GND*%
X150177500Y-85418100D03*
%TO.P,SW3,2,2*%
%TO.N,Net-(U1-GPIO4{slash}MISO)*%
X143827500Y-87958100D03*
%TD*%
%TO.P,SW11,1,1*%
%TO.N,Net-(SW10-Pad1)*%
X112077500Y-123507500D03*
%TO.P,SW11,2,2*%
%TO.N,Net-(U2-GPA2)*%
X105727500Y-126047500D03*
%TD*%
%TO.P,SW15,1,1*%
%TO.N,Net-(SW10-Pad1)*%
X188277500Y-123507500D03*
%TO.P,SW15,2,2*%
%TO.N,Net-(U2-GPA6)*%
X181927500Y-126047500D03*
%TD*%
%TO.P,SW7,1,1*%
%TO.N,GND*%
X131127500Y-104457500D03*
%TO.P,SW7,2,2*%
%TO.N,Net-(U1-GPIO29{slash}ADC3{slash}A3)*%
X124777500Y-106997500D03*
%TD*%
%TO.P,SW10,1,1*%
%TO.N,Net-(SW10-Pad1)*%
X188277500Y-104457500D03*
%TO.P,SW10,2,2*%
%TO.N,Net-(U2-GPB6)*%
X181927500Y-106997500D03*
%TD*%
%TO.P,SW4,1,1*%
%TO.N,GND*%
X169227500Y-85409600D03*
%TO.P,SW4,2,2*%
%TO.N,Net-(U1-GPIO2{slash}SCK)*%
X162877500Y-87949600D03*
%TD*%
D14*
%TO.P,SW1,A,A*%
%TO.N,Net-(U2-GPB1)*%
X102287500Y-87987500D03*
D15*
%TO.P,SW1,B,B*%
%TO.N,Net-(U2-GPB2)*%
X102287500Y-92987500D03*
%TO.P,SW1,C,C*%
%TO.N,GND*%
X102287500Y-90487500D03*
D16*
%TO.P,SW1,MP*%
%TO.N,N/C*%
X109787500Y-84887500D03*
X109787500Y-96087500D03*
D15*
%TO.P,SW1,S1,S1*%
%TO.N,Net-(U2-GPB0)*%
X116787500Y-92987500D03*
%TO.P,SW1,S2,S2*%
%TO.N,GND*%
X116787500Y-87987500D03*
%TD*%
D13*
%TO.P,SW8,1,1*%
%TO.N,Net-(SW10-Pad1)*%
X150177500Y-104457500D03*
%TO.P,SW8,2,2*%
%TO.N,Net-(U2-GPA0)*%
X143827500Y-106997500D03*
%TD*%
%TO.P,SW16,1,1*%
%TO.N,Net-(SW10-Pad1)*%
X112077500Y-56832500D03*
%TO.P,SW16,2,2*%
%TO.N,Net-(U2-GPA5)*%
X105727500Y-59372500D03*
%TD*%
%TO.P,SW2,1,1*%
%TO.N,GND*%
X131140000Y-85407500D03*
%TO.P,SW2,2,2*%
%TO.N,Net-(U1-GPIO3{slash}MOSI)*%
X124790000Y-87947500D03*
%TD*%
D17*
%TO.N,+5V*%
X191799700Y-68973300D03*
%TO.N,Net-(D1-DIN)*%
X175932600Y-71596200D03*
%TO.N,GND*%
X189606400Y-72705300D03*
%TO.N,Net-(U1-GPIO3{slash}MOSI)*%
X174515600Y-88133700D03*
%TO.N,Net-(U1-GPIO4{slash}MISO)*%
X159487700Y-87423900D03*
X164866300Y-61321000D03*
%TO.N,Net-(U1-GPIO2{slash}SCK)*%
X169391600Y-67060400D03*
%TO.N,Net-(U1-GPIO1{slash}RX)*%
X106110500Y-74883600D03*
%TO.N,Net-(U2-GPA0)*%
X147786000Y-55799100D03*
%TO.N,Net-(U2-GPA4)*%
X141154200Y-54184100D03*
%TO.N,Net-(U2-GPA6)*%
X169698100Y-50231700D03*
%TO.N,Net-(U2-GPB7)*%
X156736300Y-63491600D03*
%TO.N,Net-(U2-GPB6)*%
X154352000Y-105282100D03*
X154352000Y-63509900D03*
%TO.N,+3.3V*%
X166966500Y-51276400D03*
%TO.N,Net-(U2-GPB2)*%
X103636000Y-71919500D03*
%TO.N,Net-(U2-GPB1)*%
X102287500Y-64480900D03*
%TO.N,Net-(U2-GPB0)*%
X123242200Y-61958700D03*
%TO.N,Net-(U2-GPB3)*%
X188488400Y-65884800D03*
%TO.N,Net-(U2-GPB5)*%
X152893500Y-60420500D03*
X155164500Y-93086900D03*
%TO.N,Net-(U2-GPB4)*%
X150366000Y-80811800D03*
X150366000Y-60415000D03*
%TO.N,Net-(U2-GPA1)*%
X128518400Y-54594400D03*
%TO.N,Net-(U2-GPA2)*%
X110406600Y-55197300D03*
%TO.N,Net-(U2-GPA3)*%
X151266100Y-51286900D03*
%TO.N,Net-(U1-GPIO29{slash}ADC3{slash}A3)*%
X173796900Y-98596400D03*
%TD*%
D18*
%TO.N,+5V*%
X191799700Y-51395800D02*
X190295200Y-49891300D01*
X191799700Y-68973300D02*
X191799700Y-51395800D01*
%TO.N,Net-(D1-DIN)*%
X175055200Y-65131300D02*
X175055200Y-70718800D01*
X175055200Y-70718800D02*
X175932600Y-71596200D01*
%TO.N,GND*%
X191378500Y-53514600D02*
X190295200Y-52431300D01*
X190016600Y-63861300D02*
X190529900Y-63861300D01*
X189606400Y-84606400D02*
X189606400Y-72705300D01*
X189187300Y-72286200D02*
X189187300Y-64690600D01*
X191378500Y-63012700D02*
X191378500Y-53514600D01*
X131214600Y-85482100D02*
X131214600Y-104370400D01*
X112077500Y-104457500D02*
X112077500Y-92697500D01*
X131140000Y-85407500D02*
X131214600Y-85482100D01*
X189606400Y-72705300D02*
X189187300Y-72286200D01*
X192987500Y-87987500D02*
X189606400Y-84606400D01*
X112077500Y-92697500D02*
X116787500Y-87987500D01*
X189187300Y-64690600D02*
X190016600Y-63861300D01*
X190529900Y-63861300D02*
X191378500Y-63012700D01*
X131214600Y-104370400D02*
X131127500Y-104457500D01*
%TO.N,Net-(U1-GPIO3{slash}MOSI)*%
X190295200Y-57511300D02*
X177061000Y-70745500D01*
X177061000Y-70745500D02*
X177061000Y-85588300D01*
X177061000Y-85588300D02*
X174515600Y-88133700D01*
%TO.N,Net-(U1-GPIO4{slash}MISO)*%
X159487700Y-66699600D02*
X164866300Y-61321000D01*
X159487700Y-87423900D02*
X159487700Y-66699600D01*
%TO.N,Net-(U1-GPIO2{slash}SCK)*%
X169391600Y-81435500D02*
X169391600Y-67060400D01*
X162877500Y-87949600D02*
X169391600Y-81435500D01*
%TO.N,Net-(U1-GPIO1{slash}RX)*%
X106110500Y-106614500D02*
X106110500Y-74883600D01*
X105727500Y-106997500D02*
X106110500Y-106614500D01*
%TO.N,Net-(SW10-Pad1)*%
X112128300Y-123456700D02*
X112077500Y-123507500D01*
X112128300Y-79520000D02*
X107885800Y-83762500D01*
X107885800Y-104193700D02*
X112128300Y-108436200D01*
X188277500Y-104457500D02*
X188343600Y-104523600D01*
X107885800Y-83762500D02*
X107885800Y-104193700D01*
X112077500Y-56832500D02*
X112128300Y-56883300D01*
X188343600Y-104523600D02*
X188343600Y-123441400D01*
X112128300Y-108436200D02*
X112128300Y-123456700D01*
X112128300Y-56883300D02*
X112128300Y-79520000D01*
X188343600Y-123441400D02*
X188277500Y-123507500D01*
%TO.N,Net-(U2-GPA0)*%
X144651600Y-106173400D02*
X144651600Y-89557300D01*
X147786000Y-86422900D02*
X147786000Y-55799100D01*
X143827500Y-106997500D02*
X144651600Y-106173400D01*
X144651600Y-89557300D02*
X147786000Y-86422900D01*
%TO.N,Net-(U2-GPA4)*%
X143827500Y-126047500D02*
X141154200Y-123374200D01*
X141154200Y-123374200D02*
X141154200Y-54184100D01*
%TO.N,Net-(U2-GPA6)*%
X181927500Y-126047500D02*
X173169200Y-117289200D01*
X173169200Y-117289200D02*
X173169200Y-53702800D01*
X173169200Y-53702800D02*
X169698100Y-50231700D01*
%TO.N,Net-(U2-GPB7)*%
X162877500Y-106997500D02*
X156736300Y-100856300D01*
X156736300Y-100856300D02*
X156736300Y-63491600D01*
%TO.N,Net-(U2-GPB6)*%
X154352000Y-63509900D02*
X154352000Y-105282100D01*
%TO.N,+3.3V*%
X166966500Y-73310600D02*
X166966500Y-51276400D01*
X165820000Y-74457100D02*
X166966500Y-73310600D01*
%TO.N,Net-(U2-GPB2)*%
X102287500Y-92987500D02*
X103636000Y-91639000D01*
X103636000Y-91639000D02*
X103636000Y-71919500D01*
%TO.N,Net-(U2-GPB1)*%
X102287500Y-87987500D02*
X102287500Y-64480900D01*
%TO.N,Net-(U2-GPB0)*%
X123242200Y-86532800D02*
X123242200Y-61958700D01*
X116787500Y-92987500D02*
X123242200Y-86532800D01*
%TO.N,Net-(U2-GPB3)*%
X192987500Y-92987500D02*
X188488400Y-88488400D01*
X188488400Y-88488400D02*
X188488400Y-65884800D01*
%TO.N,Net-(U2-GPB5)*%
X155164500Y-93086900D02*
X155164500Y-62691500D01*
X155164500Y-62691500D02*
X152893500Y-60420500D01*
%TO.N,Net-(U2-GPB4)*%
X150366000Y-60415000D02*
X150366000Y-80811800D01*
%TO.N,Net-(U2-GPA1)*%
X124777500Y-126047500D02*
X125234400Y-125590600D01*
X126199200Y-108000400D02*
X126199200Y-103766200D01*
X126199200Y-103766200D02*
X126003200Y-103570200D01*
X126003200Y-103570200D02*
X126003200Y-89158900D01*
X125234400Y-108965200D02*
X126199200Y-108000400D01*
X125234400Y-125590600D02*
X125234400Y-108965200D01*
X128518400Y-86643700D02*
X128518400Y-54594400D01*
X126003200Y-89158900D02*
X128518400Y-86643700D01*
%TO.N,Net-(U2-GPA2)*%
X105727500Y-126047500D02*
X100924900Y-121244900D01*
X100924900Y-62130700D02*
X107858300Y-55197300D01*
X100924900Y-121244900D02*
X100924900Y-62130700D01*
X107858300Y-55197300D02*
X110406600Y-55197300D01*
%TO.N,Net-(U2-GPA3)*%
X155926900Y-119096900D02*
X155926900Y-55947700D01*
X155926900Y-55947700D02*
X151266100Y-51286900D01*
X162877500Y-126047500D02*
X155926900Y-119096900D01*
%TO.N,Net-(U1-GPIO29{slash}ADC3{slash}A3)*%
X175055200Y-57511300D02*
X173796900Y-58769600D01*
X173796900Y-58769600D02*
X173796900Y-98596400D01*
%TD*%
M02*
