%TF.GenerationSoftware,KiCad,Pcbnew,8.0.8*%
%TF.CreationDate,2025-02-16T20:36:26+13:00*%
%TF.ProjectId,hackpad,6861636b-7061-4642-9e6b-696361645f70,rev?*%
%TF.SameCoordinates,Original*%
%TF.FileFunction,Copper,L1,Top*%
%TF.FilePolarity,Positive*%
%FSLAX46Y46*%
G04 Gerber Fmt 4.6, Leading zero omitted, Abs format (unit mm)*
G04 Created by KiCad (PCBNEW 8.0.8) date 2025-02-16 20:36:26*
%MOMM*%
%LPD*%
G01*
G04 APERTURE LIST*
G04 Aperture macros list*
%AMRoundRect*
0 Rectangle with rounded corners*
0 $1 Rounding radius*
0 $2 $3 $4 $5 $6 $7 $8 $9 X,Y pos of 4 corners*
0 Add a 4 corners polygon primitive as box body*
4,1,4,$2,$3,$4,$5,$6,$7,$8,$9,$2,$3,0*
0 Add four circle primitives for the rounded corners*
1,1,$1+$1,$2,$3*
1,1,$1+$1,$4,$5*
1,1,$1+$1,$6,$7*
1,1,$1+$1,$8,$9*
0 Add four rect primitives between the rounded corners*
20,1,$1+$1,$2,$3,$4,$5,0*
20,1,$1+$1,$4,$5,$6,$7,0*
20,1,$1+$1,$6,$7,$8,$9,0*
20,1,$1+$1,$8,$9,$2,$3,0*%
G04 Aperture macros list end*
%TA.AperFunction,SMDPad,CuDef*%
%ADD10RoundRect,0.152400X1.063600X0.609600X-1.063600X0.609600X-1.063600X-0.609600X1.063600X-0.609600X0*%
%TD*%
%TA.AperFunction,ComponentPad*%
%ADD11C,1.524000*%
%TD*%
%TA.AperFunction,SMDPad,CuDef*%
%ADD12RoundRect,0.152400X-1.063600X-0.609600X1.063600X-0.609600X1.063600X0.609600X-1.063600X0.609600X0*%
%TD*%
%TA.AperFunction,ComponentPad*%
%ADD13C,1.400000*%
%TD*%
%TA.AperFunction,ComponentPad*%
%ADD14O,1.400000X1.400000*%
%TD*%
%TA.AperFunction,SMDPad,CuDef*%
%ADD15R,1.600000X0.850000*%
%TD*%
%TA.AperFunction,ComponentPad*%
%ADD16C,2.200000*%
%TD*%
%TA.AperFunction,ComponentPad*%
%ADD17R,2.000000X2.000000*%
%TD*%
%TA.AperFunction,ComponentPad*%
%ADD18C,2.000000*%
%TD*%
%TA.AperFunction,ComponentPad*%
%ADD19R,3.200000X2.000000*%
%TD*%
%TA.AperFunction,SMDPad,CuDef*%
%ADD20RoundRect,0.150000X0.150000X-0.875000X0.150000X0.875000X-0.150000X0.875000X-0.150000X-0.875000X0*%
%TD*%
%TA.AperFunction,ViaPad*%
%ADD21C,0.600000*%
%TD*%
%TA.AperFunction,Conductor*%
%ADD22C,0.200000*%
%TD*%
G04 APERTURE END LIST*
D10*
%TO.P,U1,1,GPIO26/ADC0/A0*%
%TO.N,unconnected-(U1-GPIO26{slash}ADC0{slash}A0-Pad1)*%
X174220200Y-49891300D03*
D11*
X175055200Y-49891300D03*
D10*
%TO.P,U1,2,GPIO27/ADC1/A1*%
%TO.N,unconnected-(U1-GPIO27{slash}ADC1{slash}A1-Pad2)*%
X174220200Y-52431300D03*
D11*
X175055200Y-52431300D03*
D10*
%TO.P,U1,3,GPIO28/ADC2/A2*%
%TO.N,unconnected-(U1-GPIO28{slash}ADC2{slash}A2-Pad3)*%
X174220200Y-54971300D03*
D11*
X175055200Y-54971300D03*
D10*
%TO.P,U1,4,GPIO29/ADC3/A3*%
%TO.N,Net-(U1-GPIO29{slash}ADC3{slash}A3)*%
X174220200Y-57511300D03*
D11*
X175055200Y-57511300D03*
D10*
%TO.P,U1,5,GPIO6/SDA*%
%TO.N,Net-(U1-GPIO6{slash}SDA)*%
X174220200Y-60051300D03*
D11*
X175055200Y-60051300D03*
D10*
%TO.P,U1,6,GPIO7/SCL*%
%TO.N,Net-(U1-GPIO7{slash}SCL)*%
X174220200Y-62591300D03*
D11*
X175055200Y-62591300D03*
D10*
%TO.P,U1,7,GPIO0/TX*%
%TO.N,Net-(D1-DIN)*%
X174220200Y-65131300D03*
D11*
X175055200Y-65131300D03*
%TO.P,U1,8,GPIO1/RX*%
%TO.N,Net-(U1-GPIO1{slash}RX)*%
X190295200Y-65131300D03*
D12*
X191130200Y-65131300D03*
D11*
%TO.P,U1,9,GPIO2/SCK*%
%TO.N,Net-(U1-GPIO2{slash}SCK)*%
X190295200Y-62591300D03*
D12*
X191130200Y-62591300D03*
D11*
%TO.P,U1,10,GPIO4/MISO*%
%TO.N,Net-(U1-GPIO4{slash}MISO)*%
X190295200Y-60051300D03*
D12*
X191130200Y-60051300D03*
D11*
%TO.P,U1,11,GPIO3/MOSI*%
%TO.N,Net-(U1-GPIO3{slash}MOSI)*%
X190295200Y-57511300D03*
D12*
X191130200Y-57511300D03*
D11*
%TO.P,U1,12,3V3*%
%TO.N,+3.3V*%
X190295200Y-54971300D03*
D12*
X191130200Y-54971300D03*
D11*
%TO.P,U1,13,GND*%
%TO.N,GND*%
X190295200Y-52431300D03*
D12*
X191130200Y-52431300D03*
D11*
%TO.P,U1,14,VBUS*%
%TO.N,+5V*%
X190295200Y-49891300D03*
D12*
X191130200Y-49891300D03*
%TD*%
D13*
%TO.P,R2,1*%
%TO.N,+3.3V*%
X165820000Y-74457100D03*
D14*
%TO.P,R2,2*%
%TO.N,Net-(U1-GPIO6{slash}SDA)*%
X165820000Y-66837100D03*
%TD*%
D15*
%TO.P,D1,1,DOUT*%
%TO.N,Net-(D1-DOUT)*%
X174141300Y-69846200D03*
%TO.P,D1,2,VSS*%
%TO.N,GND*%
X174141300Y-71596200D03*
%TO.P,D1,3,DIN*%
%TO.N,Net-(D1-DIN)*%
X177641300Y-71596200D03*
%TO.P,D1,4,VDD*%
%TO.N,+5V*%
X177641300Y-69846200D03*
%TD*%
D16*
%TO.P,SW6,1,1*%
%TO.N,GND*%
X112077500Y-104457500D03*
%TO.P,SW6,2,2*%
%TO.N,Net-(U1-GPIO1{slash}RX)*%
X105727500Y-106997500D03*
%TD*%
D13*
%TO.P,R1,1*%
%TO.N,+3.3V*%
X168116300Y-74453700D03*
D14*
%TO.P,R1,2*%
%TO.N,Net-(U1-GPIO7{slash}SCL)*%
X168116300Y-66833700D03*
%TD*%
D16*
%TO.P,SW13,1,1*%
%TO.N,Net-(SW10-Pad1)*%
X150177500Y-123507500D03*
%TO.P,SW13,2,2*%
%TO.N,Net-(U2-GPA4)*%
X143827500Y-126047500D03*
%TD*%
%TO.P,SW14,1,1*%
%TO.N,Net-(SW10-Pad1)*%
X169227500Y-123507500D03*
%TO.P,SW14,2,2*%
%TO.N,Net-(U2-GPA3)*%
X162877500Y-126047500D03*
%TD*%
%TO.P,SW9,1,1*%
%TO.N,Net-(SW10-Pad1)*%
X169227500Y-104457500D03*
%TO.P,SW9,2,2*%
%TO.N,Net-(U2-GPB7)*%
X162877500Y-106997500D03*
%TD*%
D17*
%TO.P,SW5,A,A*%
%TO.N,Net-(U2-GPB4)*%
X178487500Y-87987500D03*
D18*
%TO.P,SW5,B,B*%
%TO.N,Net-(U2-GPB5)*%
X178487500Y-92987500D03*
%TO.P,SW5,C,C*%
%TO.N,GND*%
X178487500Y-90487500D03*
D19*
%TO.P,SW5,MP*%
%TO.N,N/C*%
X185987500Y-84887500D03*
X185987500Y-96087500D03*
D18*
%TO.P,SW5,S1,S1*%
%TO.N,Net-(U2-GPB3)*%
X192987500Y-92987500D03*
%TO.P,SW5,S2,S2*%
%TO.N,GND*%
X192987500Y-87987500D03*
%TD*%
D16*
%TO.P,SW12,1,1*%
%TO.N,Net-(SW10-Pad1)*%
X131127500Y-123507500D03*
%TO.P,SW12,2,2*%
%TO.N,Net-(U2-GPA1)*%
X124777500Y-126047500D03*
%TD*%
%TO.P,SW3,1,1*%
%TO.N,GND*%
X150177500Y-85418100D03*
%TO.P,SW3,2,2*%
%TO.N,Net-(U1-GPIO4{slash}MISO)*%
X143827500Y-87958100D03*
%TD*%
%TO.P,SW11,1,1*%
%TO.N,Net-(SW10-Pad1)*%
X112077500Y-123507500D03*
%TO.P,SW11,2,2*%
%TO.N,Net-(U2-GPA2)*%
X105727500Y-126047500D03*
%TD*%
%TO.P,SW15,1,1*%
%TO.N,Net-(SW10-Pad1)*%
X188277500Y-123507500D03*
%TO.P,SW15,2,2*%
%TO.N,Net-(U2-GPA6)*%
X181927500Y-126047500D03*
%TD*%
%TO.P,SW7,1,1*%
%TO.N,GND*%
X131127500Y-104457500D03*
%TO.P,SW7,2,2*%
%TO.N,Net-(U1-GPIO29{slash}ADC3{slash}A3)*%
X124777500Y-106997500D03*
%TD*%
%TO.P,SW10,1,1*%
%TO.N,Net-(SW10-Pad1)*%
X188277500Y-104457500D03*
%TO.P,SW10,2,2*%
%TO.N,Net-(U2-GPB6)*%
X181927500Y-106997500D03*
%TD*%
%TO.P,SW4,1,1*%
%TO.N,GND*%
X169227500Y-85409600D03*
%TO.P,SW4,2,2*%
%TO.N,Net-(U1-GPIO2{slash}SCK)*%
X162877500Y-87949600D03*
%TD*%
D20*
%TO.P,U2,1,GPB0*%
%TO.N,Net-(U2-GPB0)*%
X145573800Y-61958700D03*
%TO.P,U2,2,GPB1*%
%TO.N,Net-(U2-GPB1)*%
X146843800Y-61958700D03*
%TO.P,U2,3,GPB2*%
%TO.N,Net-(U2-GPB2)*%
X148113800Y-61958700D03*
%TO.P,U2,4,GPB3*%
%TO.N,Net-(U2-GPB3)*%
X149383800Y-61958700D03*
%TO.P,U2,5,GPB4*%
%TO.N,Net-(U2-GPB4)*%
X150653800Y-61958700D03*
%TO.P,U2,6,GPB5*%
%TO.N,Net-(U2-GPB5)*%
X151923800Y-61958700D03*
%TO.P,U2,7,GPB6*%
%TO.N,Net-(U2-GPB6)*%
X153193800Y-61958700D03*
%TO.P,U2,8,GPB7*%
%TO.N,Net-(U2-GPB7)*%
X154463800Y-61958700D03*
%TO.P,U2,9,VDD*%
%TO.N,+3.3V*%
X155733800Y-61958700D03*
%TO.P,U2,10,VSS*%
%TO.N,GND*%
X157003800Y-61958700D03*
%TO.P,U2,11,NC*%
%TO.N,unconnected-(U2-NC-Pad11)*%
X158273800Y-61958700D03*
%TO.P,U2,12,SCK*%
%TO.N,Net-(U1-GPIO7{slash}SCL)*%
X159543800Y-61958700D03*
%TO.P,U2,13,SDA*%
%TO.N,Net-(U1-GPIO6{slash}SDA)*%
X160813800Y-61958700D03*
%TO.P,U2,14,NC*%
%TO.N,unconnected-(U2-NC-Pad14)*%
X162083800Y-61958700D03*
%TO.P,U2,15,A0*%
%TO.N,GND*%
X162083800Y-52658700D03*
%TO.P,U2,16,A1*%
X160813800Y-52658700D03*
%TO.P,U2,17,A2*%
X159543800Y-52658700D03*
%TO.P,U2,18,~{RESET}*%
%TO.N,+3.3V*%
X158273800Y-52658700D03*
%TO.P,U2,19,INTB*%
%TO.N,unconnected-(U2-INTB-Pad19)*%
X157003800Y-52658700D03*
%TO.P,U2,20,INTA*%
%TO.N,unconnected-(U2-INTA-Pad20)*%
X155733800Y-52658700D03*
%TO.P,U2,21,GPA0*%
%TO.N,Net-(U2-GPA0)*%
X154463800Y-52658700D03*
%TO.P,U2,22,GPA1*%
%TO.N,Net-(U2-GPA1)*%
X153193800Y-52658700D03*
%TO.P,U2,23,GPA2*%
%TO.N,Net-(U2-GPA2)*%
X151923800Y-52658700D03*
%TO.P,U2,24,GPA3*%
%TO.N,Net-(U2-GPA3)*%
X150653800Y-52658700D03*
%TO.P,U2,25,GPA4*%
%TO.N,Net-(U2-GPA4)*%
X149383800Y-52658700D03*
%TO.P,U2,26,GPA5*%
%TO.N,Net-(U2-GPA5)*%
X148113800Y-52658700D03*
%TO.P,U2,27,GPA6*%
%TO.N,Net-(U2-GPA6)*%
X146843800Y-52658700D03*
%TO.P,U2,28,GPA7*%
%TO.N,unconnected-(U2-GPA7-Pad28)*%
X145573800Y-52658700D03*
%TD*%
D15*
%TO.P,D2,1,DOUT*%
%TO.N,unconnected-(D2-DOUT-Pad1)*%
X187198000Y-69834000D03*
%TO.P,D2,2,VSS*%
%TO.N,GND*%
X187198000Y-71584000D03*
%TO.P,D2,3,DIN*%
%TO.N,Net-(D1-DOUT)*%
X190698000Y-71584000D03*
%TO.P,D2,4,VDD*%
%TO.N,+5V*%
X190698000Y-69834000D03*
%TD*%
D17*
%TO.P,SW1,A,A*%
%TO.N,Net-(U2-GPB1)*%
X102287500Y-87987500D03*
D18*
%TO.P,SW1,B,B*%
%TO.N,Net-(U2-GPB2)*%
X102287500Y-92987500D03*
%TO.P,SW1,C,C*%
%TO.N,GND*%
X102287500Y-90487500D03*
D19*
%TO.P,SW1,MP*%
%TO.N,N/C*%
X109787500Y-84887500D03*
X109787500Y-96087500D03*
D18*
%TO.P,SW1,S1,S1*%
%TO.N,Net-(U2-GPB0)*%
X116787500Y-92987500D03*
%TO.P,SW1,S2,S2*%
%TO.N,GND*%
X116787500Y-87987500D03*
%TD*%
D16*
%TO.P,SW8,1,1*%
%TO.N,Net-(SW10-Pad1)*%
X150177500Y-104457500D03*
%TO.P,SW8,2,2*%
%TO.N,Net-(U2-GPA0)*%
X143827500Y-106997500D03*
%TD*%
%TO.P,SW16,1,1*%
%TO.N,Net-(SW10-Pad1)*%
X112077500Y-56832500D03*
%TO.P,SW16,2,2*%
%TO.N,Net-(U2-GPA5)*%
X105727500Y-59372500D03*
%TD*%
%TO.P,SW2,1,1*%
%TO.N,GND*%
X131140000Y-85407500D03*
%TO.P,SW2,2,2*%
%TO.N,Net-(U1-GPIO3{slash}MOSI)*%
X124790000Y-87947500D03*
%TD*%
D21*
%TO.N,+5V*%
X191799700Y-68973300D03*
%TO.N,Net-(D1-DIN)*%
X175932600Y-71596200D03*
%TO.N,GND*%
X189606400Y-72705300D03*
%TO.N,Net-(U1-GPIO3{slash}MOSI)*%
X174515600Y-88133700D03*
%TO.N,Net-(U1-GPIO4{slash}MISO)*%
X159487700Y-87423900D03*
X164866300Y-61321000D03*
%TO.N,Net-(U1-GPIO2{slash}SCK)*%
X169391600Y-67060400D03*
%TO.N,Net-(U1-GPIO1{slash}RX)*%
X106110500Y-74883600D03*
%TO.N,Net-(U2-GPA0)*%
X147786000Y-55799100D03*
%TO.N,Net-(U2-GPA4)*%
X141154200Y-54184100D03*
%TO.N,Net-(U2-GPA6)*%
X169698100Y-50231700D03*
%TO.N,Net-(U2-GPB7)*%
X156736300Y-63491600D03*
%TO.N,Net-(U2-GPB6)*%
X154352000Y-105282100D03*
X154352000Y-63509900D03*
%TO.N,+3.3V*%
X166966500Y-51276400D03*
%TO.N,Net-(U2-GPB2)*%
X103636000Y-71919500D03*
%TO.N,Net-(U2-GPB1)*%
X102287500Y-64480900D03*
%TO.N,Net-(U2-GPB0)*%
X123242200Y-61958700D03*
%TO.N,Net-(U2-GPB3)*%
X188488400Y-65884800D03*
%TO.N,Net-(U2-GPB5)*%
X152893500Y-60420500D03*
X155164500Y-93086900D03*
%TO.N,Net-(U2-GPB4)*%
X150366000Y-80811800D03*
X150366000Y-60415000D03*
%TO.N,Net-(U2-GPA1)*%
X128518400Y-54594400D03*
%TO.N,Net-(U2-GPA2)*%
X110406600Y-55197300D03*
%TO.N,Net-(U2-GPA3)*%
X151266100Y-51286900D03*
%TO.N,Net-(U1-GPIO29{slash}ADC3{slash}A3)*%
X173796900Y-98596400D03*
%TD*%
D22*
%TO.N,+5V*%
X177641300Y-69846200D02*
X178743000Y-69846200D01*
X190698000Y-69834000D02*
X189596300Y-69834000D01*
X188869600Y-69107300D02*
X189596300Y-69834000D01*
X186185200Y-69107300D02*
X188869600Y-69107300D01*
X191799700Y-69834000D02*
X191799700Y-68973300D01*
X178743000Y-69846200D02*
X185446300Y-69846200D01*
X185446300Y-69846200D02*
X186185200Y-69107300D01*
X191130200Y-49891300D02*
X190295200Y-49891300D01*
X190698000Y-69834000D02*
X191799700Y-69834000D01*
%TO.N,Net-(D1-DOUT)*%
X174141300Y-69846200D02*
X175243000Y-69846200D01*
X175243000Y-69846200D02*
X176254100Y-70857300D01*
X188869600Y-70857300D02*
X189596300Y-71584000D01*
X176254100Y-70857300D02*
X188869600Y-70857300D01*
X190698000Y-71584000D02*
X189596300Y-71584000D01*
%TO.N,Net-(D1-DIN)*%
X175055200Y-65131300D02*
X174220200Y-65131300D01*
X177641300Y-71596200D02*
X176539600Y-71596200D01*
X176539600Y-71596200D02*
X175932600Y-71596200D01*
%TO.N,GND*%
X187198000Y-71584000D02*
X186096300Y-71584000D01*
X174141300Y-71596200D02*
X175243000Y-71596200D01*
X150186000Y-85409600D02*
X150177500Y-85418100D01*
X180987500Y-87987500D02*
X178487500Y-90487500D01*
X116787500Y-87987500D02*
X104787500Y-87987500D01*
X157003800Y-58606600D02*
X159543800Y-56066600D01*
X175243000Y-71778000D02*
X175243000Y-71596200D01*
X160813800Y-52658700D02*
X162083800Y-52658700D01*
X192700600Y-55775500D02*
X192700600Y-54001700D01*
X159543800Y-52658700D02*
X160813800Y-52658700D01*
X169227500Y-85409600D02*
X150186000Y-85409600D01*
X157003800Y-61958700D02*
X157003800Y-58606600D01*
X189606400Y-72705300D02*
X189421000Y-72705300D01*
X187748900Y-71584000D02*
X188299700Y-71584000D01*
X191130200Y-52431300D02*
X190295200Y-52431300D01*
X159543800Y-56066600D02*
X159543800Y-52658700D01*
X116787500Y-87987500D02*
X119367500Y-85407500D01*
X186096300Y-71584000D02*
X185357400Y-72322900D01*
X150166900Y-85407500D02*
X150177500Y-85418100D01*
X104787500Y-87987500D02*
X102287500Y-90487500D01*
X192409500Y-56066600D02*
X192700600Y-55775500D01*
X173409600Y-85409600D02*
X178487500Y-90487500D01*
X175787900Y-72322900D02*
X175243000Y-71778000D01*
X131140000Y-85407500D02*
X150166900Y-85407500D01*
X189421000Y-72705300D02*
X188299700Y-71584000D01*
X192700600Y-54001700D02*
X191130200Y-52431300D01*
X192987500Y-87987500D02*
X180987500Y-87987500D01*
X187748900Y-71584000D02*
X187198000Y-71584000D01*
X119367500Y-85407500D02*
X131140000Y-85407500D01*
X185357400Y-72322900D02*
X175787900Y-72322900D01*
X169227500Y-85409600D02*
X173409600Y-85409600D01*
X159543800Y-56066600D02*
X192409500Y-56066600D01*
%TO.N,Net-(U1-GPIO3{slash}MOSI)*%
X148739700Y-86520300D02*
X134286900Y-86520300D01*
X167803600Y-86525700D02*
X151568300Y-86525700D01*
X133968000Y-86839200D02*
X125898300Y-86839200D01*
X151568300Y-86525700D02*
X151191200Y-86902800D01*
X134286900Y-86520300D02*
X133968000Y-86839200D01*
X151191200Y-86902800D02*
X149122200Y-86902800D01*
X149122200Y-86902800D02*
X148739700Y-86520300D01*
X174515600Y-88133700D02*
X169411600Y-88133700D01*
X169411600Y-88133700D02*
X167803600Y-86525700D01*
X191130200Y-57511300D02*
X190295200Y-57511300D01*
X125898300Y-86839200D02*
X124790000Y-87947500D01*
%TO.N,Net-(U1-GPIO4{slash}MISO)*%
X191130200Y-60051300D02*
X190295200Y-60051300D01*
X189025500Y-61321000D02*
X190295200Y-60051300D01*
X143827500Y-87958100D02*
X144361700Y-87423900D01*
X164866300Y-61321000D02*
X189025500Y-61321000D01*
X144361700Y-87423900D02*
X159487700Y-87423900D01*
%TO.N,Net-(U1-GPIO2{slash}SCK)*%
X191130200Y-62591300D02*
X190295200Y-62591300D01*
X185826100Y-67060400D02*
X169391600Y-67060400D01*
X190295200Y-62591300D02*
X185826100Y-67060400D01*
%TO.N,Net-(U1-GPIO1{slash}RX)*%
X191130200Y-65131300D02*
X190295200Y-65131300D01*
X106110500Y-74883600D02*
X159296000Y-74883600D01*
X159296000Y-74883600D02*
X165335200Y-68844400D01*
X186281800Y-68442700D02*
X186983800Y-68442700D01*
X186983800Y-68442700D02*
X190295200Y-65131300D01*
X165335200Y-68844400D02*
X185880100Y-68844400D01*
X185880100Y-68844400D02*
X186281800Y-68442700D01*
%TO.N,Net-(SW10-Pad1)*%
X169227500Y-123507500D02*
X150177500Y-123507500D01*
X112077500Y-123507500D02*
X131127500Y-123507500D01*
X131127500Y-123507500D02*
X150177500Y-123507500D01*
X150177500Y-104457500D02*
X169227500Y-104457500D01*
X188277500Y-104457500D02*
X169227500Y-104457500D01*
X188277500Y-123507500D02*
X169227500Y-123507500D01*
%TO.N,Net-(U2-GPA0)*%
X147786000Y-55799100D02*
X151737700Y-55799100D01*
X151737700Y-55799100D02*
X154463800Y-53073000D01*
X154463800Y-53073000D02*
X154463800Y-52658700D01*
%TO.N,Net-(U2-GPA4)*%
X141363800Y-54393700D02*
X141154200Y-54184100D01*
X148043500Y-54393700D02*
X141363800Y-54393700D01*
X149383800Y-53053400D02*
X148043500Y-54393700D01*
X149383800Y-52658700D02*
X149383800Y-53053400D01*
%TO.N,unconnected-(U1-GPIO28{slash}ADC2{slash}A2-Pad3)*%
X175055200Y-54971300D02*
X174220200Y-54971300D01*
%TO.N,unconnected-(U1-GPIO26{slash}ADC0{slash}A0-Pad1)*%
X175055200Y-49891300D02*
X174220200Y-49891300D01*
%TO.N,unconnected-(U1-GPIO27{slash}ADC1{slash}A1-Pad2)*%
X175055200Y-52431300D02*
X174220200Y-52431300D01*
%TO.N,Net-(U2-GPA6)*%
X148871100Y-50231700D02*
X146843800Y-52259000D01*
X146843800Y-52259000D02*
X146843800Y-52658700D01*
X169698100Y-50231700D02*
X148871100Y-50231700D01*
%TO.N,Net-(U2-GPA5)*%
X147257300Y-53992000D02*
X145242400Y-53992000D01*
X145242400Y-53992000D02*
X144820100Y-53569700D01*
X144820100Y-53569700D02*
X111173200Y-53569700D01*
X148113800Y-52658700D02*
X148113800Y-53135500D01*
X148113800Y-53135500D02*
X147257300Y-53992000D01*
X111173200Y-53569700D02*
X105727500Y-59015400D01*
X105727500Y-59015400D02*
X105727500Y-59372500D01*
%TO.N,Net-(U2-GPB7)*%
X155540300Y-63491600D02*
X154463800Y-62415100D01*
X154463800Y-62415100D02*
X154463800Y-61958700D01*
X156736300Y-63491600D02*
X155540300Y-63491600D01*
%TO.N,Net-(U2-GPB6)*%
X167184000Y-106427500D02*
X166038600Y-105282100D01*
X181927500Y-106997500D02*
X181357500Y-106427500D01*
X153193800Y-61958700D02*
X153193800Y-62428900D01*
X181357500Y-106427500D02*
X167184000Y-106427500D01*
X154274800Y-63509900D02*
X154352000Y-63509900D01*
X153193800Y-62428900D02*
X154274800Y-63509900D01*
X166038600Y-105282100D02*
X154352000Y-105282100D01*
%TO.N,+3.3V*%
X168116300Y-74453700D02*
X165823400Y-74453700D01*
X158273800Y-52658700D02*
X158273800Y-52244400D01*
X165823400Y-74453700D02*
X165820000Y-74457100D01*
X190295200Y-54971300D02*
X186600300Y-51276400D01*
X159241800Y-51276400D02*
X166966500Y-51276400D01*
X158273800Y-52244400D02*
X159241800Y-51276400D01*
X155733800Y-61958700D02*
X155733800Y-55723800D01*
X155733800Y-55723800D02*
X158273800Y-53183800D01*
X158273800Y-53183800D02*
X158273800Y-52658700D01*
X186600300Y-51276400D02*
X166966500Y-51276400D01*
X191130200Y-54971300D02*
X190295200Y-54971300D01*
%TO.N,Net-(U1-GPIO7{slash}SCL)*%
X168116300Y-66833700D02*
X167114600Y-66833700D01*
X165003700Y-67847700D02*
X166277000Y-67847700D01*
X167114600Y-67010100D02*
X167114600Y-66833700D01*
X166277000Y-67847700D02*
X167114600Y-67010100D01*
X175055200Y-62591300D02*
X174220200Y-62591300D01*
X159543800Y-62387800D02*
X165003700Y-67847700D01*
X168116300Y-66833700D02*
X172358700Y-62591300D01*
X159543800Y-61958700D02*
X159543800Y-62387800D01*
X172358700Y-62591300D02*
X174220200Y-62591300D01*
%TO.N,Net-(U1-GPIO6{slash}SDA)*%
X174220200Y-60051300D02*
X162256800Y-60051300D01*
X160813800Y-62832600D02*
X160813800Y-61958700D01*
X164818300Y-66837100D02*
X160813800Y-62832600D01*
X175055200Y-60051300D02*
X174220200Y-60051300D01*
X162256800Y-60051300D02*
X160813800Y-61494300D01*
X165820000Y-66837100D02*
X164818300Y-66837100D01*
X160813800Y-61494300D02*
X160813800Y-61958700D01*
%TO.N,Net-(U2-GPB2)*%
X148113800Y-61958700D02*
X148113800Y-62360400D01*
X147112300Y-63361900D02*
X146772900Y-63361900D01*
X148113800Y-62360400D02*
X147112300Y-63361900D01*
X146772900Y-63361900D02*
X138215300Y-71919500D01*
X138215300Y-71919500D02*
X103636000Y-71919500D01*
%TO.N,Net-(U2-GPB1)*%
X146843800Y-62450600D02*
X144813500Y-64480900D01*
X144813500Y-64480900D02*
X102287500Y-64480900D01*
X146843800Y-61958700D02*
X146843800Y-62450600D01*
%TO.N,Net-(U2-GPB0)*%
X145573800Y-61958700D02*
X123242200Y-61958700D01*
%TO.N,Net-(U2-GPB3)*%
X155294500Y-68282800D02*
X185673500Y-68282800D01*
X149383800Y-62372100D02*
X155294500Y-68282800D01*
X188071500Y-65884800D02*
X188488400Y-65884800D01*
X149383800Y-61958700D02*
X149383800Y-62372100D01*
X185673500Y-68282800D02*
X188071500Y-65884800D01*
%TO.N,Net-(U2-GPB5)*%
X155164500Y-93086900D02*
X178388100Y-93086900D01*
X151923800Y-61390200D02*
X152893500Y-60420500D01*
X151923800Y-61958700D02*
X151923800Y-61390200D01*
X178388100Y-93086900D02*
X178487500Y-92987500D01*
%TO.N,Net-(U2-GPB4)*%
X178487500Y-87987500D02*
X177185800Y-87987500D01*
X150366000Y-61670900D02*
X150366000Y-60415000D01*
X170010100Y-80811800D02*
X150366000Y-80811800D01*
X150653800Y-61958700D02*
X150366000Y-61670900D01*
X177185800Y-87987500D02*
X170010100Y-80811800D01*
%TO.N,Net-(U2-GPA1)*%
X153193800Y-52215200D02*
X151661300Y-50682700D01*
X150018800Y-51590900D02*
X150018800Y-53694900D01*
X128719600Y-54795600D02*
X128518400Y-54594400D01*
X150927000Y-50682700D02*
X150018800Y-51590900D01*
X148918100Y-54795600D02*
X128719600Y-54795600D01*
X153193800Y-52658700D02*
X153193800Y-52215200D01*
X151661300Y-50682700D02*
X150927000Y-50682700D01*
X150018800Y-53694900D02*
X148918100Y-54795600D01*
%TO.N,Net-(U2-GPA2)*%
X149792800Y-55197300D02*
X110406600Y-55197300D01*
X151923800Y-52658700D02*
X151923800Y-53066300D01*
X151923800Y-53066300D02*
X149792800Y-55197300D01*
%TO.N,Net-(U2-GPA3)*%
X150653800Y-52658700D02*
X150653800Y-51899200D01*
X150653800Y-51899200D02*
X151266100Y-51286900D01*
%TO.N,Net-(U1-GPIO29{slash}ADC3{slash}A3)*%
X175055200Y-57511300D02*
X174220200Y-57511300D01*
X133178600Y-98596400D02*
X173796900Y-98596400D01*
X124777500Y-106997500D02*
X133178600Y-98596400D01*
%TD*%
M02*
